<?xml version="1.0" encoding="utf-8" standalone="no"?>
<!DOCTYPE svg PUBLIC "-//W3C//DTD SVG 1.1//EN"
  "http://www.w3.org/Graphics/SVG/1.1/DTD/svg11.dtd">
<svg xmlns:xlink="http://www.w3.org/1999/xlink" width="720pt" height="360pt" viewBox="0 0 720 360" xmlns="http://www.w3.org/2000/svg" version="1.1">
 <metadata>
  <rdf:RDF xmlns:dc="http://purl.org/dc/elements/1.1/" xmlns:cc="http://creativecommons.org/ns#" xmlns:rdf="http://www.w3.org/1999/02/22-rdf-syntax-ns#">
   <cc:Work>
    <dc:type rdf:resource="http://purl.org/dc/dcmitype/StillImage"/>
    <dc:date>2025-11-21T19:56:44.550637</dc:date>
    <dc:format>image/svg+xml</dc:format>
    <dc:creator>
     <cc:Agent>
      <dc:title>Matplotlib v3.10.1, https://matplotlib.org/</dc:title>
     </cc:Agent>
    </dc:creator>
   </cc:Work>
  </rdf:RDF>
 </metadata>
 <defs>
  <style type="text/css">*{stroke-linejoin: round; stroke-linecap: butt}</style>
 </defs>
 <g id="figure_1">
  <g id="patch_1">
   <path d="M 0 360 
L 720 360 
L 720 0 
L 0 0 
z
" style="fill: #ffffff"/>
  </g>
  <g id="axes_1">
   <g id="patch_2">
    <path d="M 90 320.4 
L 343.636364 320.4 
L 343.636364 43.2 
L 90 43.2 
z
" style="fill: #ffffff"/>
   </g>
   <g id="FillBetweenPolyCollection_1">
    <path d="M 159.139607 55760.4 
L 147.678575 55760.4 
L 146.298299 55760.4 
L 144.686895 55760.4 
L 142.832906 55760.4 
L 140.731386 55760.4 
L 138.385436 55760.4 
L 135.807548 55760.4 
L 133.020597 55760.4 
L 130.058358 55760.4 
L 126.965434 55760.4 
L 123.796519 55760.4 
L 120.614948 55760.4 
L 117.490578 55760.4 
L 114.497069 55760.4 
L 111.708708 55760.4 
L 109.196977 55760.4 
L 107.027085 55760.4 
L 105.2547 55760.4 
L 103.92314 55760.4 
L 103.061204 186.533211 
L 102.681818 162.477542 
L 102.781583 150.687433 
L 103.341245 142.807658 
L 104.32703 136.880666 
L 105.692721 132.128288 
L 107.382306 128.161082 
L 109.33298 124.756018 
L 111.478271 121.773382 
L 113.75109 119.119834 
L 116.086501 116.729919 
L 118.424072 114.555952 
L 120.709702 112.562123 
L 122.896895 110.72085 
L 124.947474 109.010437 
L 126.831783 107.413512 
L 128.52847 105.915947 
L 130.02393 104.506098 
L 131.311524 103.174257 
L 132.390659 101.912241 
L 133.265826 100.713093 
L 133.94565 99.570844 
L 134.442003 98.48034 
L 134.769206 97.437093 
L 134.943323 96.437179 
L 134.981556 95.477139 
L 134.901717 94.553917 
L 134.72177 93.664791 
L 134.459435 92.807333 
L 134.131834 91.979364 
L 133.755183 91.178923 
L 133.344532 90.404238 
L 132.913555 89.653704 
L 132.474393 88.92586 
L 132.037578 88.219375 
L 131.61202 87.533029 
L 131.205081 86.865708 
L 130.82272 86.216384 
L 130.469717 85.584113 
L 130.149939 84.968021 
L 129.866647 84.367301 
L 129.622816 83.781205 
L 129.421437 83.209037 
L 129.265771 82.650152 
L 129.159548 82.103945 
L 129.107074 81.569855 
L 129.113242 81.047356 
L 129.183451 80.535955 
L 129.323411 80.03519 
L 129.53888 79.544629 
L 129.835318 79.063864 
L 130.217512 78.59251 
L 130.689178 78.130207 
L 131.252579 77.676614 
L 131.908188 77.231409 
L 132.654425 76.794286 
L 133.487478 76.364958 
L 134.401243 75.943151 
L 135.387369 75.528607 
L 136.435433 75.12108 
L 137.533217 74.720335 
L 138.667085 74.326152 
L 139.822437 73.938318 
L 140.984213 73.556633 
L 142.137414 73.180904 
L 143.267618 72.810948 
L 144.361461 72.446591 
L 145.407048 72.087665 
L 146.394288 71.734012 
L 147.315121 71.385478 
L 148.163652 71.041917 
L 148.936169 70.70319 
L 149.631068 70.369162 
L 150.248696 70.039705 
L 150.791115 69.714695 
L 151.261828 69.394013 
L 151.665472 69.077547 
L 152.007507 68.765187 
L 152.293909 68.456827 
L 152.530894 68.152366 
L 152.724672 67.851707 
L 154.093509 67.851707 
L 154.093509 67.851707 
L 154.287288 68.152366 
L 154.524272 68.456827 
L 154.810674 68.765187 
L 155.15271 69.077547 
L 155.556354 69.394013 
L 156.027067 69.714695 
L 156.569486 70.039705 
L 157.187113 70.369162 
L 157.882013 70.70319 
L 158.65453 71.041917 
L 159.503061 71.385478 
L 160.423894 71.734012 
L 161.411134 72.087665 
L 162.456721 72.446591 
L 163.550564 72.810948 
L 164.680768 73.180904 
L 165.833968 73.556633 
L 166.995744 73.938318 
L 168.151097 74.326152 
L 169.284965 74.720335 
L 170.382749 75.12108 
L 171.430813 75.528607 
L 172.416939 75.943151 
L 173.330703 76.364958 
L 174.163757 76.794286 
L 174.909994 77.231409 
L 175.565603 77.676614 
L 176.129004 78.130207 
L 176.60067 78.59251 
L 176.982864 79.063864 
L 177.279302 79.544629 
L 177.49477 80.03519 
L 177.634731 80.535955 
L 177.704939 81.047356 
L 177.711108 81.569855 
L 177.658633 82.103945 
L 177.55241 82.650152 
L 177.396745 83.209037 
L 177.195365 83.781205 
L 176.951535 84.367301 
L 176.668243 84.968021 
L 176.348464 85.584113 
L 175.995461 86.216384 
L 175.613101 86.865708 
L 175.206162 87.533029 
L 174.780604 88.219375 
L 174.343789 88.92586 
L 173.904627 89.653704 
L 173.47365 90.404238 
L 173.062999 91.178923 
L 172.686348 91.979364 
L 172.358747 92.807333 
L 172.096412 93.664791 
L 171.916465 94.553917 
L 171.836626 95.477139 
L 171.874859 96.437179 
L 172.048976 97.437093 
L 172.376179 98.48034 
L 172.872532 99.570844 
L 173.552356 100.713093 
L 174.427523 101.912241 
L 175.506658 103.174257 
L 176.794252 104.506098 
L 178.289712 105.915947 
L 179.986399 107.413512 
L 181.870708 109.010437 
L 183.921287 110.72085 
L 186.10848 112.562123 
L 188.39411 114.555952 
L 190.731681 116.729919 
L 193.067092 119.119834 
L 195.339911 121.773382 
L 197.485202 124.756018 
L 199.435876 128.161082 
L 201.125461 132.128288 
L 202.491152 136.880666 
L 203.476937 142.807658 
L 204.036598 150.687433 
L 204.136364 162.477542 
L 203.756978 186.533211 
L 202.895041 55760.4 
L 201.563482 55760.4 
L 199.791097 55760.4 
L 197.621204 55760.4 
L 195.109474 55760.4 
L 192.321113 55760.4 
L 189.327604 55760.4 
L 186.203234 55760.4 
L 183.021663 55760.4 
L 179.852748 55760.4 
L 176.759824 55760.4 
L 173.797584 55760.4 
L 171.010633 55760.4 
L 168.432746 55760.4 
L 166.086796 55760.4 
L 163.985276 55760.4 
L 162.131287 55760.4 
L 160.519882 55760.4 
L 159.139607 55760.4 
z
" clip-path="url(#pbecb1b824f)" style="fill: #e98e83; stroke: #6d6d6d; stroke-width: 1.25"/>
   </g>
   <g id="FillBetweenPolyCollection_2">
    <path d="M 285.932654 55760.4 
L 274.521891 55760.4 
L 273.412609 55760.4 
L 272.149461 55760.4 
L 270.724818 55760.4 
L 269.133624 55760.4 
L 267.374012 55760.4 
L 265.447878 55760.4 
L 263.361399 55760.4 
L 261.12546 55760.4 
L 258.755944 55760.4 
L 256.273863 55760.4 
L 253.705304 55760.4 
L 251.081166 55760.4 
L 248.436671 55760.4 
L 245.810671 55760.4 
L 243.244734 55760.4 
L 240.78206 55760.4 
L 238.466247 55760.4 
L 236.339964 55760.4 
L 234.443573 55760.4 
L 232.813783 55760.4 
L 231.482372 55760.4 
L 230.47506 55760.4 
L 229.810583 234.502362 
L 229.5 200.203885 
L 229.546295 186.601214 
L 229.944271 177.962184 
L 230.680756 171.617605 
L 231.735104 166.601004 
L 233.079968 162.451549 
L 234.682308 158.913181 
L 236.504581 155.828801 
L 238.50606 153.095049 
L 240.644214 150.640282 
L 242.876098 148.412793 
L 245.159672 146.374041 
L 247.455023 144.494526 
L 249.725419 142.751164 
L 251.938174 141.125556 
L 254.065293 139.602795 
L 256.083893 138.170639 
L 257.976386 136.818909 
L 259.730453 135.539049 
L 261.33881 134.323802 
L 262.798809 133.166956 
L 264.111897 132.063154 
L 265.282983 131.007745 
L 266.319727 129.996662 
L 267.231826 129.026332 
L 268.030296 128.093598 
L 268.726803 127.195653 
L 269.33307 126.329995 
L 269.860365 125.494384 
L 270.319109 124.686803 
L 270.718586 123.905432 
L 271.066773 123.148624 
L 271.370287 122.414881 
L 271.634421 121.702839 
L 271.863272 121.011251 
L 272.059939 120.338974 
L 272.226763 119.684959 
L 272.365595 119.048241 
L 272.478066 118.427928 
L 272.565848 117.823196 
L 272.630872 117.233281 
L 272.675507 116.657474 
L 272.702682 116.095117 
L 272.715936 115.545595 
L 272.719415 115.008335 
L 272.717799 114.482803 
L 272.71618 113.968497 
L 272.719894 113.464947 
L 272.734316 112.971714 
L 272.764649 112.488382 
L 272.8157 112.014561 
L 272.89167 111.549886 
L 272.995976 111.094009 
L 273.131098 110.646603 
L 273.298477 110.207359 
L 273.498465 109.775986 
L 273.730318 109.352205 
L 273.992244 108.935754 
L 274.281499 108.526384 
L 274.594518 108.123858 
L 274.927074 107.727951 
L 275.274468 107.338449 
L 275.631715 106.955147 
L 275.993741 106.577852 
L 276.355563 106.206379 
L 276.712456 105.840549 
L 277.06009 105.480195 
L 277.394646 105.125155 
L 277.712894 104.775274 
L 278.012241 104.430404 
L 278.290748 104.090405 
L 278.547122 103.75514 
L 278.780684 103.42448 
L 278.991308 103.098299 
L 279.179363 102.776478 
L 279.345629 102.458902 
L 281.108916 102.458902 
L 281.108916 102.458902 
L 281.275183 102.776478 
L 281.463237 103.098299 
L 281.673862 103.42448 
L 281.907423 103.75514 
L 282.163798 104.090405 
L 282.442305 104.430404 
L 282.741651 104.775274 
L 283.059899 105.125155 
L 283.394455 105.480195 
L 283.74209 105.840549 
L 284.098982 106.206379 
L 284.460804 106.577852 
L 284.82283 106.955147 
L 285.180077 107.338449 
L 285.527471 107.727951 
L 285.860028 108.123858 
L 286.173046 108.526384 
L 286.462301 108.935754 
L 286.724228 109.352205 
L 286.95608 109.775986 
L 287.156068 110.207359 
L 287.323448 110.646603 
L 287.458569 111.094009 
L 287.562875 111.549886 
L 287.638846 112.014561 
L 287.689896 112.488382 
L 287.720229 112.971714 
L 287.734652 113.464947 
L 287.738365 113.968497 
L 287.736747 114.482803 
L 287.735131 115.008335 
L 287.73861 115.545595 
L 287.751864 116.095117 
L 287.779038 116.657474 
L 287.823674 117.233281 
L 287.888698 117.823196 
L 287.976479 118.427928 
L 288.088951 119.048241 
L 288.227782 119.684959 
L 288.394606 120.338974 
L 288.591274 121.011251 
L 288.820125 121.702839 
L 289.084258 122.414881 
L 289.387772 123.148624 
L 289.73596 123.905432 
L 290.135436 124.686803 
L 290.59418 125.494384 
L 291.121476 126.329995 
L 291.727742 127.195653 
L 292.424249 128.093598 
L 293.222719 129.026332 
L 294.134818 129.996662 
L 295.171563 131.007745 
L 296.342648 132.063154 
L 297.655737 133.166956 
L 299.115736 134.323802 
L 300.724093 135.539049 
L 302.47816 136.818909 
L 304.370653 138.170639 
L 306.389252 139.602795 
L 308.516372 141.125556 
L 310.729126 142.751164 
L 312.999522 144.494526 
L 315.294873 146.374041 
L 317.578447 148.412793 
L 319.810331 150.640282 
L 321.948486 153.095049 
L 323.949965 155.828801 
L 325.772238 158.913181 
L 327.374577 162.451549 
L 328.719441 166.601004 
L 329.773789 171.617605 
L 330.510274 177.962184 
L 330.908251 186.601214 
L 330.954545 200.203885 
L 330.643962 234.502362 
L 329.979485 55760.4 
L 328.972174 55760.4 
L 327.640762 55760.4 
L 326.010972 55760.4 
L 324.114582 55760.4 
L 321.988298 55760.4 
L 319.672486 55760.4 
L 317.209812 55760.4 
L 314.643875 55760.4 
L 312.017874 55760.4 
L 309.37338 55760.4 
L 306.749241 55760.4 
L 304.180683 55760.4 
L 301.698602 55760.4 
L 299.329085 55760.4 
L 297.093146 55760.4 
L 295.006668 55760.4 
L 293.080533 55760.4 
L 291.320921 55760.4 
L 289.729728 55760.4 
L 288.305084 55760.4 
L 287.041937 55760.4 
L 285.932654 55760.4 
z
" clip-path="url(#pbecb1b824f)" style="fill: #94c9de; stroke: #6d6d6d; stroke-width: 1.25"/>
   </g>
   <g id="matplotlib.axis_1">
    <g id="xtick_1">
     <g id="line2d_1">
      <defs>
       <path id="mce730df37b" d="M 0 0 
L 0 3.5 
" style="stroke: #000000; stroke-width: 0.8"/>
      </defs>
      <g>
       <use xlink:href="#mce730df37b" x="153.409091" y="320.4" style="stroke: #000000; stroke-width: 0.8"/>
      </g>
     </g>
     <g id="text_1">
      <!-- Bronchiolitis -->
      <g transform="translate(122.709091 334.998438) scale(0.1 -0.1)">
       <defs>
        <path id="DejaVuSans-42" d="M 1259 2228 
L 1259 519 
L 2272 519 
Q 2781 519 3026 730 
Q 3272 941 3272 1375 
Q 3272 1813 3026 2020 
Q 2781 2228 2272 2228 
L 1259 2228 
z
M 1259 4147 
L 1259 2741 
L 2194 2741 
Q 2656 2741 2882 2914 
Q 3109 3088 3109 3444 
Q 3109 3797 2882 3972 
Q 2656 4147 2194 4147 
L 1259 4147 
z
M 628 4666 
L 2241 4666 
Q 2963 4666 3353 4366 
Q 3744 4066 3744 3513 
Q 3744 3084 3544 2831 
Q 3344 2578 2956 2516 
Q 3422 2416 3680 2098 
Q 3938 1781 3938 1306 
Q 3938 681 3513 340 
Q 3088 0 2303 0 
L 628 0 
L 628 4666 
z
" transform="scale(0.015625)"/>
        <path id="DejaVuSans-72" d="M 2631 2963 
Q 2534 3019 2420 3045 
Q 2306 3072 2169 3072 
Q 1681 3072 1420 2755 
Q 1159 2438 1159 1844 
L 1159 0 
L 581 0 
L 581 3500 
L 1159 3500 
L 1159 2956 
Q 1341 3275 1631 3429 
Q 1922 3584 2338 3584 
Q 2397 3584 2469 3576 
Q 2541 3569 2628 3553 
L 2631 2963 
z
" transform="scale(0.015625)"/>
        <path id="DejaVuSans-6f" d="M 1959 3097 
Q 1497 3097 1228 2736 
Q 959 2375 959 1747 
Q 959 1119 1226 758 
Q 1494 397 1959 397 
Q 2419 397 2687 759 
Q 2956 1122 2956 1747 
Q 2956 2369 2687 2733 
Q 2419 3097 1959 3097 
z
M 1959 3584 
Q 2709 3584 3137 3096 
Q 3566 2609 3566 1747 
Q 3566 888 3137 398 
Q 2709 -91 1959 -91 
Q 1206 -91 779 398 
Q 353 888 353 1747 
Q 353 2609 779 3096 
Q 1206 3584 1959 3584 
z
" transform="scale(0.015625)"/>
        <path id="DejaVuSans-6e" d="M 3513 2113 
L 3513 0 
L 2938 0 
L 2938 2094 
Q 2938 2591 2744 2837 
Q 2550 3084 2163 3084 
Q 1697 3084 1428 2787 
Q 1159 2491 1159 1978 
L 1159 0 
L 581 0 
L 581 3500 
L 1159 3500 
L 1159 2956 
Q 1366 3272 1645 3428 
Q 1925 3584 2291 3584 
Q 2894 3584 3203 3211 
Q 3513 2838 3513 2113 
z
" transform="scale(0.015625)"/>
        <path id="DejaVuSans-63" d="M 3122 3366 
L 3122 2828 
Q 2878 2963 2633 3030 
Q 2388 3097 2138 3097 
Q 1578 3097 1268 2742 
Q 959 2388 959 1747 
Q 959 1106 1268 751 
Q 1578 397 2138 397 
Q 2388 397 2633 464 
Q 2878 531 3122 666 
L 3122 134 
Q 2881 22 2623 -34 
Q 2366 -91 2075 -91 
Q 1284 -91 818 406 
Q 353 903 353 1747 
Q 353 2603 823 3093 
Q 1294 3584 2113 3584 
Q 2378 3584 2631 3529 
Q 2884 3475 3122 3366 
z
" transform="scale(0.015625)"/>
        <path id="DejaVuSans-68" d="M 3513 2113 
L 3513 0 
L 2938 0 
L 2938 2094 
Q 2938 2591 2744 2837 
Q 2550 3084 2163 3084 
Q 1697 3084 1428 2787 
Q 1159 2491 1159 1978 
L 1159 0 
L 581 0 
L 581 4863 
L 1159 4863 
L 1159 2956 
Q 1366 3272 1645 3428 
Q 1925 3584 2291 3584 
Q 2894 3584 3203 3211 
Q 3513 2838 3513 2113 
z
" transform="scale(0.015625)"/>
        <path id="DejaVuSans-69" d="M 603 3500 
L 1178 3500 
L 1178 0 
L 603 0 
L 603 3500 
z
M 603 4863 
L 1178 4863 
L 1178 4134 
L 603 4134 
L 603 4863 
z
" transform="scale(0.015625)"/>
        <path id="DejaVuSans-6c" d="M 603 4863 
L 1178 4863 
L 1178 0 
L 603 0 
L 603 4863 
z
" transform="scale(0.015625)"/>
        <path id="DejaVuSans-74" d="M 1172 4494 
L 1172 3500 
L 2356 3500 
L 2356 3053 
L 1172 3053 
L 1172 1153 
Q 1172 725 1289 603 
Q 1406 481 1766 481 
L 2356 481 
L 2356 0 
L 1766 0 
Q 1100 0 847 248 
Q 594 497 594 1153 
L 594 3053 
L 172 3053 
L 172 3500 
L 594 3500 
L 594 4494 
L 1172 4494 
z
" transform="scale(0.015625)"/>
        <path id="DejaVuSans-73" d="M 2834 3397 
L 2834 2853 
Q 2591 2978 2328 3040 
Q 2066 3103 1784 3103 
Q 1356 3103 1142 2972 
Q 928 2841 928 2578 
Q 928 2378 1081 2264 
Q 1234 2150 1697 2047 
L 1894 2003 
Q 2506 1872 2764 1633 
Q 3022 1394 3022 966 
Q 3022 478 2636 193 
Q 2250 -91 1575 -91 
Q 1294 -91 989 -36 
Q 684 19 347 128 
L 347 722 
Q 666 556 975 473 
Q 1284 391 1588 391 
Q 1994 391 2212 530 
Q 2431 669 2431 922 
Q 2431 1156 2273 1281 
Q 2116 1406 1581 1522 
L 1381 1569 
Q 847 1681 609 1914 
Q 372 2147 372 2553 
Q 372 3047 722 3315 
Q 1072 3584 1716 3584 
Q 2034 3584 2315 3537 
Q 2597 3491 2834 3397 
z
" transform="scale(0.015625)"/>
       </defs>
       <use xlink:href="#DejaVuSans-42"/>
       <use xlink:href="#DejaVuSans-72" transform="translate(68.603516 0)"/>
       <use xlink:href="#DejaVuSans-6f" transform="translate(107.466797 0)"/>
       <use xlink:href="#DejaVuSans-6e" transform="translate(168.648438 0)"/>
       <use xlink:href="#DejaVuSans-63" transform="translate(232.027344 0)"/>
       <use xlink:href="#DejaVuSans-68" transform="translate(287.007812 0)"/>
       <use xlink:href="#DejaVuSans-69" transform="translate(350.386719 0)"/>
       <use xlink:href="#DejaVuSans-6f" transform="translate(378.169922 0)"/>
       <use xlink:href="#DejaVuSans-6c" transform="translate(439.351562 0)"/>
       <use xlink:href="#DejaVuSans-69" transform="translate(467.134766 0)"/>
       <use xlink:href="#DejaVuSans-74" transform="translate(494.917969 0)"/>
       <use xlink:href="#DejaVuSans-69" transform="translate(534.126953 0)"/>
       <use xlink:href="#DejaVuSans-73" transform="translate(561.910156 0)"/>
      </g>
     </g>
    </g>
    <g id="xtick_2">
     <g id="line2d_2">
      <g>
       <use xlink:href="#mce730df37b" x="280.227273" y="320.4" style="stroke: #000000; stroke-width: 0.8"/>
      </g>
     </g>
     <g id="text_2">
      <!-- Control -->
      <g transform="translate(262.156179 334.998438) scale(0.1 -0.1)">
       <defs>
        <path id="DejaVuSans-43" d="M 4122 4306 
L 4122 3641 
Q 3803 3938 3442 4084 
Q 3081 4231 2675 4231 
Q 1875 4231 1450 3742 
Q 1025 3253 1025 2328 
Q 1025 1406 1450 917 
Q 1875 428 2675 428 
Q 3081 428 3442 575 
Q 3803 722 4122 1019 
L 4122 359 
Q 3791 134 3420 21 
Q 3050 -91 2638 -91 
Q 1578 -91 968 557 
Q 359 1206 359 2328 
Q 359 3453 968 4101 
Q 1578 4750 2638 4750 
Q 3056 4750 3426 4639 
Q 3797 4528 4122 4306 
z
" transform="scale(0.015625)"/>
       </defs>
       <use xlink:href="#DejaVuSans-43"/>
       <use xlink:href="#DejaVuSans-6f" transform="translate(69.824219 0)"/>
       <use xlink:href="#DejaVuSans-6e" transform="translate(131.005859 0)"/>
       <use xlink:href="#DejaVuSans-74" transform="translate(194.384766 0)"/>
       <use xlink:href="#DejaVuSans-72" transform="translate(233.59375 0)"/>
       <use xlink:href="#DejaVuSans-6f" transform="translate(272.457031 0)"/>
       <use xlink:href="#DejaVuSans-6c" transform="translate(333.638672 0)"/>
      </g>
     </g>
    </g>
   </g>
   <g id="matplotlib.axis_2">
    <g id="ytick_1">
     <g id="line2d_3">
      <defs>
       <path id="me5071f2abb" d="M 0 0 
L -3.5 0 
" style="stroke: #000000; stroke-width: 0.8"/>
      </defs>
      <g>
       <use xlink:href="#me5071f2abb" x="90" y="320.4" style="stroke: #000000; stroke-width: 0.8"/>
      </g>
     </g>
     <g id="text_3">
      <!-- $\mathdefault{10^{0}}$ -->
      <g transform="translate(65.4 324.199219) scale(0.1 -0.1)">
       <defs>
        <path id="DejaVuSans-31" d="M 794 531 
L 1825 531 
L 1825 4091 
L 703 3866 
L 703 4441 
L 1819 4666 
L 2450 4666 
L 2450 531 
L 3481 531 
L 3481 0 
L 794 0 
L 794 531 
z
" transform="scale(0.015625)"/>
        <path id="DejaVuSans-30" d="M 2034 4250 
Q 1547 4250 1301 3770 
Q 1056 3291 1056 2328 
Q 1056 1369 1301 889 
Q 1547 409 2034 409 
Q 2525 409 2770 889 
Q 3016 1369 3016 2328 
Q 3016 3291 2770 3770 
Q 2525 4250 2034 4250 
z
M 2034 4750 
Q 2819 4750 3233 4129 
Q 3647 3509 3647 2328 
Q 3647 1150 3233 529 
Q 2819 -91 2034 -91 
Q 1250 -91 836 529 
Q 422 1150 422 2328 
Q 422 3509 836 4129 
Q 1250 4750 2034 4750 
z
" transform="scale(0.015625)"/>
       </defs>
       <use xlink:href="#DejaVuSans-31" transform="translate(0 0.765625)"/>
       <use xlink:href="#DejaVuSans-30" transform="translate(63.623047 0.765625)"/>
       <use xlink:href="#DejaVuSans-30" transform="translate(128.203125 39.046875) scale(0.7)"/>
      </g>
     </g>
    </g>
    <g id="ytick_2">
     <g id="line2d_4">
      <g>
       <use xlink:href="#me5071f2abb" x="90" y="264.96" style="stroke: #000000; stroke-width: 0.8"/>
      </g>
     </g>
     <g id="text_4">
      <!-- $\mathdefault{10^{1}}$ -->
      <g transform="translate(65.4 268.759219) scale(0.1 -0.1)">
       <use xlink:href="#DejaVuSans-31" transform="translate(0 0.684375)"/>
       <use xlink:href="#DejaVuSans-30" transform="translate(63.623047 0.684375)"/>
       <use xlink:href="#DejaVuSans-31" transform="translate(128.203125 38.965625) scale(0.7)"/>
      </g>
     </g>
    </g>
    <g id="ytick_3">
     <g id="line2d_5">
      <g>
       <use xlink:href="#me5071f2abb" x="90" y="209.52" style="stroke: #000000; stroke-width: 0.8"/>
      </g>
     </g>
     <g id="text_5">
      <!-- $\mathdefault{10^{2}}$ -->
      <g transform="translate(65.4 213.319219) scale(0.1 -0.1)">
       <defs>
        <path id="DejaVuSans-32" d="M 1228 531 
L 3431 531 
L 3431 0 
L 469 0 
L 469 531 
Q 828 903 1448 1529 
Q 2069 2156 2228 2338 
Q 2531 2678 2651 2914 
Q 2772 3150 2772 3378 
Q 2772 3750 2511 3984 
Q 2250 4219 1831 4219 
Q 1534 4219 1204 4116 
Q 875 4013 500 3803 
L 500 4441 
Q 881 4594 1212 4672 
Q 1544 4750 1819 4750 
Q 2544 4750 2975 4387 
Q 3406 4025 3406 3419 
Q 3406 3131 3298 2873 
Q 3191 2616 2906 2266 
Q 2828 2175 2409 1742 
Q 1991 1309 1228 531 
z
" transform="scale(0.015625)"/>
       </defs>
       <use xlink:href="#DejaVuSans-31" transform="translate(0 0.765625)"/>
       <use xlink:href="#DejaVuSans-30" transform="translate(63.623047 0.765625)"/>
       <use xlink:href="#DejaVuSans-32" transform="translate(128.203125 39.046875) scale(0.7)"/>
      </g>
     </g>
    </g>
    <g id="ytick_4">
     <g id="line2d_6">
      <g>
       <use xlink:href="#me5071f2abb" x="90" y="154.08" style="stroke: #000000; stroke-width: 0.8"/>
      </g>
     </g>
     <g id="text_6">
      <!-- $\mathdefault{10^{3}}$ -->
      <g transform="translate(65.4 157.879219) scale(0.1 -0.1)">
       <defs>
        <path id="DejaVuSans-33" d="M 2597 2516 
Q 3050 2419 3304 2112 
Q 3559 1806 3559 1356 
Q 3559 666 3084 287 
Q 2609 -91 1734 -91 
Q 1441 -91 1130 -33 
Q 819 25 488 141 
L 488 750 
Q 750 597 1062 519 
Q 1375 441 1716 441 
Q 2309 441 2620 675 
Q 2931 909 2931 1356 
Q 2931 1769 2642 2001 
Q 2353 2234 1838 2234 
L 1294 2234 
L 1294 2753 
L 1863 2753 
Q 2328 2753 2575 2939 
Q 2822 3125 2822 3475 
Q 2822 3834 2567 4026 
Q 2313 4219 1838 4219 
Q 1578 4219 1281 4162 
Q 984 4106 628 3988 
L 628 4550 
Q 988 4650 1302 4700 
Q 1616 4750 1894 4750 
Q 2613 4750 3031 4423 
Q 3450 4097 3450 3541 
Q 3450 3153 3228 2886 
Q 3006 2619 2597 2516 
z
" transform="scale(0.015625)"/>
       </defs>
       <use xlink:href="#DejaVuSans-31" transform="translate(0 0.765625)"/>
       <use xlink:href="#DejaVuSans-30" transform="translate(63.623047 0.765625)"/>
       <use xlink:href="#DejaVuSans-33" transform="translate(128.203125 39.046875) scale(0.7)"/>
      </g>
     </g>
    </g>
    <g id="ytick_5">
     <g id="line2d_7">
      <g>
       <use xlink:href="#me5071f2abb" x="90" y="98.64" style="stroke: #000000; stroke-width: 0.8"/>
      </g>
     </g>
     <g id="text_7">
      <!-- $\mathdefault{10^{4}}$ -->
      <g transform="translate(65.4 102.439219) scale(0.1 -0.1)">
       <defs>
        <path id="DejaVuSans-34" d="M 2419 4116 
L 825 1625 
L 2419 1625 
L 2419 4116 
z
M 2253 4666 
L 3047 4666 
L 3047 1625 
L 3713 1625 
L 3713 1100 
L 3047 1100 
L 3047 0 
L 2419 0 
L 2419 1100 
L 313 1100 
L 313 1709 
L 2253 4666 
z
" transform="scale(0.015625)"/>
       </defs>
       <use xlink:href="#DejaVuSans-31" transform="translate(0 0.684375)"/>
       <use xlink:href="#DejaVuSans-30" transform="translate(63.623047 0.684375)"/>
       <use xlink:href="#DejaVuSans-34" transform="translate(128.203125 38.965625) scale(0.7)"/>
      </g>
     </g>
    </g>
    <g id="ytick_6">
     <g id="line2d_8">
      <g>
       <use xlink:href="#me5071f2abb" x="90" y="43.2" style="stroke: #000000; stroke-width: 0.8"/>
      </g>
     </g>
     <g id="text_8">
      <!-- $\mathdefault{10^{5}}$ -->
      <g transform="translate(65.4 46.999219) scale(0.1 -0.1)">
       <defs>
        <path id="DejaVuSans-35" d="M 691 4666 
L 3169 4666 
L 3169 4134 
L 1269 4134 
L 1269 2991 
Q 1406 3038 1543 3061 
Q 1681 3084 1819 3084 
Q 2600 3084 3056 2656 
Q 3513 2228 3513 1497 
Q 3513 744 3044 326 
Q 2575 -91 1722 -91 
Q 1428 -91 1123 -41 
Q 819 9 494 109 
L 494 744 
Q 775 591 1075 516 
Q 1375 441 1709 441 
Q 2250 441 2565 725 
Q 2881 1009 2881 1497 
Q 2881 1984 2565 2268 
Q 2250 2553 1709 2553 
Q 1456 2553 1204 2497 
Q 953 2441 691 2322 
L 691 4666 
z
" transform="scale(0.015625)"/>
       </defs>
       <use xlink:href="#DejaVuSans-31" transform="translate(0 0.684375)"/>
       <use xlink:href="#DejaVuSans-30" transform="translate(63.623047 0.684375)"/>
       <use xlink:href="#DejaVuSans-35" transform="translate(128.203125 38.965625) scale(0.7)"/>
      </g>
     </g>
    </g>
    <g id="ytick_7">
     <g id="line2d_9">
      <defs>
       <path id="m330480af26" d="M 0 0 
L -2 0 
" style="stroke: #000000; stroke-width: 0.6"/>
      </defs>
      <g>
       <use xlink:href="#m330480af26" x="90" y="303.710897" style="stroke: #000000; stroke-width: 0.6"/>
      </g>
     </g>
    </g>
    <g id="ytick_8">
     <g id="line2d_10">
      <g>
       <use xlink:href="#m330480af26" x="90" y="293.948398" style="stroke: #000000; stroke-width: 0.6"/>
      </g>
     </g>
    </g>
    <g id="ytick_9">
     <g id="line2d_11">
      <g>
       <use xlink:href="#m330480af26" x="90" y="287.021794" style="stroke: #000000; stroke-width: 0.6"/>
      </g>
     </g>
    </g>
    <g id="ytick_10">
     <g id="line2d_12">
      <g>
       <use xlink:href="#m330480af26" x="90" y="281.649103" style="stroke: #000000; stroke-width: 0.6"/>
      </g>
     </g>
    </g>
    <g id="ytick_11">
     <g id="line2d_13">
      <g>
       <use xlink:href="#m330480af26" x="90" y="277.259295" style="stroke: #000000; stroke-width: 0.6"/>
      </g>
     </g>
    </g>
    <g id="ytick_12">
     <g id="line2d_14">
      <g>
       <use xlink:href="#m330480af26" x="90" y="273.547765" style="stroke: #000000; stroke-width: 0.6"/>
      </g>
     </g>
    </g>
    <g id="ytick_13">
     <g id="line2d_15">
      <g>
       <use xlink:href="#m330480af26" x="90" y="270.332691" style="stroke: #000000; stroke-width: 0.6"/>
      </g>
     </g>
    </g>
    <g id="ytick_14">
     <g id="line2d_16">
      <g>
       <use xlink:href="#m330480af26" x="90" y="267.496795" style="stroke: #000000; stroke-width: 0.6"/>
      </g>
     </g>
    </g>
    <g id="ytick_15">
     <g id="line2d_17">
      <g>
       <use xlink:href="#m330480af26" x="90" y="248.270897" style="stroke: #000000; stroke-width: 0.6"/>
      </g>
     </g>
    </g>
    <g id="ytick_16">
     <g id="line2d_18">
      <g>
       <use xlink:href="#m330480af26" x="90" y="238.508398" style="stroke: #000000; stroke-width: 0.6"/>
      </g>
     </g>
    </g>
    <g id="ytick_17">
     <g id="line2d_19">
      <g>
       <use xlink:href="#m330480af26" x="90" y="231.581794" style="stroke: #000000; stroke-width: 0.6"/>
      </g>
     </g>
    </g>
    <g id="ytick_18">
     <g id="line2d_20">
      <g>
       <use xlink:href="#m330480af26" x="90" y="226.209103" style="stroke: #000000; stroke-width: 0.6"/>
      </g>
     </g>
    </g>
    <g id="ytick_19">
     <g id="line2d_21">
      <g>
       <use xlink:href="#m330480af26" x="90" y="221.819295" style="stroke: #000000; stroke-width: 0.6"/>
      </g>
     </g>
    </g>
    <g id="ytick_20">
     <g id="line2d_22">
      <g>
       <use xlink:href="#m330480af26" x="90" y="218.107765" style="stroke: #000000; stroke-width: 0.6"/>
      </g>
     </g>
    </g>
    <g id="ytick_21">
     <g id="line2d_23">
      <g>
       <use xlink:href="#m330480af26" x="90" y="214.892691" style="stroke: #000000; stroke-width: 0.6"/>
      </g>
     </g>
    </g>
    <g id="ytick_22">
     <g id="line2d_24">
      <g>
       <use xlink:href="#m330480af26" x="90" y="212.056795" style="stroke: #000000; stroke-width: 0.6"/>
      </g>
     </g>
    </g>
    <g id="ytick_23">
     <g id="line2d_25">
      <g>
       <use xlink:href="#m330480af26" x="90" y="192.830897" style="stroke: #000000; stroke-width: 0.6"/>
      </g>
     </g>
    </g>
    <g id="ytick_24">
     <g id="line2d_26">
      <g>
       <use xlink:href="#m330480af26" x="90" y="183.068398" style="stroke: #000000; stroke-width: 0.6"/>
      </g>
     </g>
    </g>
    <g id="ytick_25">
     <g id="line2d_27">
      <g>
       <use xlink:href="#m330480af26" x="90" y="176.141794" style="stroke: #000000; stroke-width: 0.6"/>
      </g>
     </g>
    </g>
    <g id="ytick_26">
     <g id="line2d_28">
      <g>
       <use xlink:href="#m330480af26" x="90" y="170.769103" style="stroke: #000000; stroke-width: 0.6"/>
      </g>
     </g>
    </g>
    <g id="ytick_27">
     <g id="line2d_29">
      <g>
       <use xlink:href="#m330480af26" x="90" y="166.379295" style="stroke: #000000; stroke-width: 0.6"/>
      </g>
     </g>
    </g>
    <g id="ytick_28">
     <g id="line2d_30">
      <g>
       <use xlink:href="#m330480af26" x="90" y="162.667765" style="stroke: #000000; stroke-width: 0.6"/>
      </g>
     </g>
    </g>
    <g id="ytick_29">
     <g id="line2d_31">
      <g>
       <use xlink:href="#m330480af26" x="90" y="159.452691" style="stroke: #000000; stroke-width: 0.6"/>
      </g>
     </g>
    </g>
    <g id="ytick_30">
     <g id="line2d_32">
      <g>
       <use xlink:href="#m330480af26" x="90" y="156.616795" style="stroke: #000000; stroke-width: 0.6"/>
      </g>
     </g>
    </g>
    <g id="ytick_31">
     <g id="line2d_33">
      <g>
       <use xlink:href="#m330480af26" x="90" y="137.390897" style="stroke: #000000; stroke-width: 0.6"/>
      </g>
     </g>
    </g>
    <g id="ytick_32">
     <g id="line2d_34">
      <g>
       <use xlink:href="#m330480af26" x="90" y="127.628398" style="stroke: #000000; stroke-width: 0.6"/>
      </g>
     </g>
    </g>
    <g id="ytick_33">
     <g id="line2d_35">
      <g>
       <use xlink:href="#m330480af26" x="90" y="120.701794" style="stroke: #000000; stroke-width: 0.6"/>
      </g>
     </g>
    </g>
    <g id="ytick_34">
     <g id="line2d_36">
      <g>
       <use xlink:href="#m330480af26" x="90" y="115.329103" style="stroke: #000000; stroke-width: 0.6"/>
      </g>
     </g>
    </g>
    <g id="ytick_35">
     <g id="line2d_37">
      <g>
       <use xlink:href="#m330480af26" x="90" y="110.939295" style="stroke: #000000; stroke-width: 0.6"/>
      </g>
     </g>
    </g>
    <g id="ytick_36">
     <g id="line2d_38">
      <g>
       <use xlink:href="#m330480af26" x="90" y="107.227765" style="stroke: #000000; stroke-width: 0.6"/>
      </g>
     </g>
    </g>
    <g id="ytick_37">
     <g id="line2d_39">
      <g>
       <use xlink:href="#m330480af26" x="90" y="104.012691" style="stroke: #000000; stroke-width: 0.6"/>
      </g>
     </g>
    </g>
    <g id="ytick_38">
     <g id="line2d_40">
      <g>
       <use xlink:href="#m330480af26" x="90" y="101.176795" style="stroke: #000000; stroke-width: 0.6"/>
      </g>
     </g>
    </g>
    <g id="ytick_39">
     <g id="line2d_41">
      <g>
       <use xlink:href="#m330480af26" x="90" y="81.950897" style="stroke: #000000; stroke-width: 0.6"/>
      </g>
     </g>
    </g>
    <g id="ytick_40">
     <g id="line2d_42">
      <g>
       <use xlink:href="#m330480af26" x="90" y="72.188398" style="stroke: #000000; stroke-width: 0.6"/>
      </g>
     </g>
    </g>
    <g id="ytick_41">
     <g id="line2d_43">
      <g>
       <use xlink:href="#m330480af26" x="90" y="65.261794" style="stroke: #000000; stroke-width: 0.6"/>
      </g>
     </g>
    </g>
    <g id="ytick_42">
     <g id="line2d_44">
      <g>
       <use xlink:href="#m330480af26" x="90" y="59.889103" style="stroke: #000000; stroke-width: 0.6"/>
      </g>
     </g>
    </g>
    <g id="ytick_43">
     <g id="line2d_45">
      <g>
       <use xlink:href="#m330480af26" x="90" y="55.499295" style="stroke: #000000; stroke-width: 0.6"/>
      </g>
     </g>
    </g>
    <g id="ytick_44">
     <g id="line2d_46">
      <g>
       <use xlink:href="#m330480af26" x="90" y="51.787765" style="stroke: #000000; stroke-width: 0.6"/>
      </g>
     </g>
    </g>
    <g id="ytick_45">
     <g id="line2d_47">
      <g>
       <use xlink:href="#m330480af26" x="90" y="48.572691" style="stroke: #000000; stroke-width: 0.6"/>
      </g>
     </g>
    </g>
    <g id="ytick_46">
     <g id="line2d_48">
      <g>
       <use xlink:href="#m330480af26" x="90" y="45.736795" style="stroke: #000000; stroke-width: 0.6"/>
      </g>
     </g>
    </g>
    <g id="text_9">
     <!-- Rarefied Counts -->
     <g transform="translate(59.320312 221.6875) rotate(-90) scale(0.1 -0.1)">
      <defs>
       <path id="DejaVuSans-52" d="M 2841 2188 
Q 3044 2119 3236 1894 
Q 3428 1669 3622 1275 
L 4263 0 
L 3584 0 
L 2988 1197 
Q 2756 1666 2539 1819 
Q 2322 1972 1947 1972 
L 1259 1972 
L 1259 0 
L 628 0 
L 628 4666 
L 2053 4666 
Q 2853 4666 3247 4331 
Q 3641 3997 3641 3322 
Q 3641 2881 3436 2590 
Q 3231 2300 2841 2188 
z
M 1259 4147 
L 1259 2491 
L 2053 2491 
Q 2509 2491 2742 2702 
Q 2975 2913 2975 3322 
Q 2975 3731 2742 3939 
Q 2509 4147 2053 4147 
L 1259 4147 
z
" transform="scale(0.015625)"/>
       <path id="DejaVuSans-61" d="M 2194 1759 
Q 1497 1759 1228 1600 
Q 959 1441 959 1056 
Q 959 750 1161 570 
Q 1363 391 1709 391 
Q 2188 391 2477 730 
Q 2766 1069 2766 1631 
L 2766 1759 
L 2194 1759 
z
M 3341 1997 
L 3341 0 
L 2766 0 
L 2766 531 
Q 2569 213 2275 61 
Q 1981 -91 1556 -91 
Q 1019 -91 701 211 
Q 384 513 384 1019 
Q 384 1609 779 1909 
Q 1175 2209 1959 2209 
L 2766 2209 
L 2766 2266 
Q 2766 2663 2505 2880 
Q 2244 3097 1772 3097 
Q 1472 3097 1187 3025 
Q 903 2953 641 2809 
L 641 3341 
Q 956 3463 1253 3523 
Q 1550 3584 1831 3584 
Q 2591 3584 2966 3190 
Q 3341 2797 3341 1997 
z
" transform="scale(0.015625)"/>
       <path id="DejaVuSans-65" d="M 3597 1894 
L 3597 1613 
L 953 1613 
Q 991 1019 1311 708 
Q 1631 397 2203 397 
Q 2534 397 2845 478 
Q 3156 559 3463 722 
L 3463 178 
Q 3153 47 2828 -22 
Q 2503 -91 2169 -91 
Q 1331 -91 842 396 
Q 353 884 353 1716 
Q 353 2575 817 3079 
Q 1281 3584 2069 3584 
Q 2775 3584 3186 3129 
Q 3597 2675 3597 1894 
z
M 3022 2063 
Q 3016 2534 2758 2815 
Q 2500 3097 2075 3097 
Q 1594 3097 1305 2825 
Q 1016 2553 972 2059 
L 3022 2063 
z
" transform="scale(0.015625)"/>
       <path id="DejaVuSans-66" d="M 2375 4863 
L 2375 4384 
L 1825 4384 
Q 1516 4384 1395 4259 
Q 1275 4134 1275 3809 
L 1275 3500 
L 2222 3500 
L 2222 3053 
L 1275 3053 
L 1275 0 
L 697 0 
L 697 3053 
L 147 3053 
L 147 3500 
L 697 3500 
L 697 3744 
Q 697 4328 969 4595 
Q 1241 4863 1831 4863 
L 2375 4863 
z
" transform="scale(0.015625)"/>
       <path id="DejaVuSans-64" d="M 2906 2969 
L 2906 4863 
L 3481 4863 
L 3481 0 
L 2906 0 
L 2906 525 
Q 2725 213 2448 61 
Q 2172 -91 1784 -91 
Q 1150 -91 751 415 
Q 353 922 353 1747 
Q 353 2572 751 3078 
Q 1150 3584 1784 3584 
Q 2172 3584 2448 3432 
Q 2725 3281 2906 2969 
z
M 947 1747 
Q 947 1113 1208 752 
Q 1469 391 1925 391 
Q 2381 391 2643 752 
Q 2906 1113 2906 1747 
Q 2906 2381 2643 2742 
Q 2381 3103 1925 3103 
Q 1469 3103 1208 2742 
Q 947 2381 947 1747 
z
" transform="scale(0.015625)"/>
       <path id="DejaVuSans-20" transform="scale(0.015625)"/>
       <path id="DejaVuSans-75" d="M 544 1381 
L 544 3500 
L 1119 3500 
L 1119 1403 
Q 1119 906 1312 657 
Q 1506 409 1894 409 
Q 2359 409 2629 706 
Q 2900 1003 2900 1516 
L 2900 3500 
L 3475 3500 
L 3475 0 
L 2900 0 
L 2900 538 
Q 2691 219 2414 64 
Q 2138 -91 1772 -91 
Q 1169 -91 856 284 
Q 544 659 544 1381 
z
M 1991 3584 
L 1991 3584 
z
" transform="scale(0.015625)"/>
      </defs>
      <use xlink:href="#DejaVuSans-52"/>
      <use xlink:href="#DejaVuSans-61" transform="translate(67.232422 0)"/>
      <use xlink:href="#DejaVuSans-72" transform="translate(128.511719 0)"/>
      <use xlink:href="#DejaVuSans-65" transform="translate(167.375 0)"/>
      <use xlink:href="#DejaVuSans-66" transform="translate(228.898438 0)"/>
      <use xlink:href="#DejaVuSans-69" transform="translate(264.103516 0)"/>
      <use xlink:href="#DejaVuSans-65" transform="translate(291.886719 0)"/>
      <use xlink:href="#DejaVuSans-64" transform="translate(353.410156 0)"/>
      <use xlink:href="#DejaVuSans-20" transform="translate(416.886719 0)"/>
      <use xlink:href="#DejaVuSans-43" transform="translate(448.673828 0)"/>
      <use xlink:href="#DejaVuSans-6f" transform="translate(518.498047 0)"/>
      <use xlink:href="#DejaVuSans-75" transform="translate(579.679688 0)"/>
      <use xlink:href="#DejaVuSans-6e" transform="translate(643.058594 0)"/>
      <use xlink:href="#DejaVuSans-74" transform="translate(706.4375 0)"/>
      <use xlink:href="#DejaVuSans-73" transform="translate(745.646484 0)"/>
     </g>
    </g>
   </g>
   <g id="line2d_49">
    <path d="M 153.409091 361 
L 153.409091 74.099362 
" clip-path="url(#pbecb1b824f)" style="fill: none; stroke: #6d6d6d; stroke-width: 1.875; stroke-linecap: square"/>
   </g>
   <g id="line2d_50">
    <path d="M 153.409091 242.18651 
L 153.409091 84.944109 
" clip-path="url(#pbecb1b824f)" style="fill: none; stroke: #6d6d6d; stroke-width: 5.625; stroke-linecap: square"/>
   </g>
   <g id="line2d_51">
    <path d="M 153.409091 115.749285 
" clip-path="url(#pbecb1b824f)" style="fill: none; stroke: #6d6d6d; stroke-width: 1.5; stroke-linecap: square"/>
    <defs>
     <path id="m05a413c060" d="M 2.34375 0 
L -2.34375 -0 
" style="stroke: #ffffff; stroke-width: 1.125"/>
    </defs>
    <g clip-path="url(#pbecb1b824f)">
     <use xlink:href="#m05a413c060" x="153.409091" y="115.749285" style="fill: #ffffff; stroke: #ffffff; stroke-width: 1.125"/>
    </g>
   </g>
   <g id="line2d_52">
    <path d="M 280.227273 361 
L 280.227273 153.983883 
" clip-path="url(#pbecb1b824f)" style="fill: none; stroke: #6d6d6d; stroke-width: 1.875; stroke-linecap: square"/>
   </g>
   <g id="line2d_53">
    <path d="M 280.227273 262.124104 
L 280.227273 158.242154 
" clip-path="url(#pbecb1b824f)" style="fill: none; stroke: #6d6d6d; stroke-width: 5.625; stroke-linecap: square"/>
   </g>
   <g id="line2d_54">
    <path d="M 280.227273 224.134178 
" clip-path="url(#pbecb1b824f)" style="fill: none; stroke: #6d6d6d; stroke-width: 1.5; stroke-linecap: square"/>
    <g clip-path="url(#pbecb1b824f)">
     <use xlink:href="#m05a413c060" x="280.227273" y="224.134178" style="fill: #ffffff; stroke: #ffffff; stroke-width: 1.125"/>
    </g>
   </g>
   <g id="patch_3">
    <path d="M 90 320.4 
L 90 43.2 
" style="fill: none; stroke: #000000; stroke-width: 0.8; stroke-linejoin: miter; stroke-linecap: square"/>
   </g>
   <g id="patch_4">
    <path d="M 343.636364 320.4 
L 343.636364 43.2 
" style="fill: none; stroke: #000000; stroke-width: 0.8; stroke-linejoin: miter; stroke-linecap: square"/>
   </g>
   <g id="patch_5">
    <path d="M 90 320.4 
L 343.636364 320.4 
" style="fill: none; stroke: #000000; stroke-width: 0.8; stroke-linejoin: miter; stroke-linecap: square"/>
   </g>
   <g id="patch_6">
    <path d="M 90 43.2 
L 343.636364 43.2 
" style="fill: none; stroke: #000000; stroke-width: 0.8; stroke-linejoin: miter; stroke-linecap: square"/>
   </g>
   <g id="PathCollection_1">
    <defs>
     <path id="mc92242ccba" d="M 0 2.5 
C 0.663008 2.5 1.29895 2.236584 1.767767 1.767767 
C 2.236584 1.29895 2.5 0.663008 2.5 0 
C 2.5 -0.663008 2.236584 -1.29895 1.767767 -1.767767 
C 1.29895 -2.236584 0.663008 -2.5 0 -2.5 
C -0.663008 -2.5 -1.29895 -2.236584 -1.767767 -1.767767 
C -2.236584 -1.29895 -2.5 -0.663008 -2.5 0 
C -2.5 0.663008 -2.236584 1.29895 -1.767767 1.767767 
C -1.29895 2.236584 -0.663008 2.5 0 2.5 
z
"/>
    </defs>
    <g clip-path="url(#pbecb1b824f)">
     <use xlink:href="#mc92242ccba" x="157.885926" y="92.501442" style="fill-opacity: 0.4"/>
     <use xlink:href="#mc92242ccba" x="152.834576" y="78.807711" style="fill-opacity: 0.4"/>
     <use xlink:href="#mc92242ccba" x="156.455257" y="86.247946" style="fill-opacity: 0.4"/>
     <use xlink:href="#mc92242ccba" x="149.258314" y="116.721757" style="fill-opacity: 0.4"/>
     <use xlink:href="#mc92242ccba" x="149.54417" y="253.643588" style="fill-opacity: 0.4"/>
     <use xlink:href="#mc92242ccba" x="148.437013" y="207.666987" style="fill-opacity: 0.4"/>
     <use xlink:href="#mc92242ccba" x="142.7163" y="242.898206" style="fill-opacity: 0.4"/>
     <use xlink:href="#mc92242ccba" x="161.895096" y="83.548509" style="fill-opacity: 0.4"/>
     <use xlink:href="#mc92242ccba" x="147.961412" y="287.021794" style="fill-opacity: 0.4"/>
     <use xlink:href="#mc92242ccba" x="150.908748" y="162.224716" style="fill-opacity: 0.4"/>
     <use xlink:href="#mc92242ccba" x="156.902869" y="208.117043" style="fill-opacity: 0.4"/>
     <use xlink:href="#mc92242ccba" x="141.940822" y="107.289757" style="fill-opacity: 0.4"/>
     <use xlink:href="#mc92242ccba" x="145.937625" y="90.86069" style="fill-opacity: 0.4"/>
     <use xlink:href="#mc92242ccba" x="165.460551" y="241.953878" style="fill-opacity: 0.4"/>
     <use xlink:href="#mc92242ccba" x="148.912177" y="86.541866" style="fill-opacity: 0.4"/>
     <use xlink:href="#mc92242ccba" x="143.782087" y="80.247718" style="fill-opacity: 0.4"/>
     <use xlink:href="#mc92242ccba" x="148.952579" y="112.047908" style="fill-opacity: 0.4"/>
     <use xlink:href="#mc92242ccba" x="147.228733" y="244.905809" style="fill-opacity: 0.4"/>
     <use xlink:href="#mc92242ccba" x="165.778838" y="195.908778" style="fill-opacity: 0.4"/>
     <use xlink:href="#mc92242ccba" x="154.389649" y="109.336525" style="fill-opacity: 0.4"/>
     <use xlink:href="#mc92242ccba" x="157.622428" y="91.378652" style="fill-opacity: 0.4"/>
     <use xlink:href="#mc92242ccba" x="165.317083" y="114.772185" style="fill-opacity: 0.4"/>
     <use xlink:href="#mc92242ccba" x="157.707735" y="75.811406" style="fill-opacity: 0.4"/>
     <use xlink:href="#mc92242ccba" x="144.96415" y="293.948398" style="fill-opacity: 0.4"/>
     <use xlink:href="#mc92242ccba" x="150.700025" y="86.581231" style="fill-opacity: 0.4"/>
     <use xlink:href="#mc92242ccba" x="140.801506" y="85.880914" style="fill-opacity: 0.4"/>
     <use xlink:href="#mc92242ccba" x="151.022316" y="79.111791" style="fill-opacity: 0.4"/>
     <use xlink:href="#mc92242ccba" x="160.249135" y="76.229219" style="fill-opacity: 0.4"/>
     <use xlink:href="#mc92242ccba" x="164.778027" y="79.358067" style="fill-opacity: 0.4"/>
     <use xlink:href="#mc92242ccba" x="157.789358" y="170.625071" style="fill-opacity: 0.4"/>
     <use xlink:href="#mc92242ccba" x="159.185344" y="122.781475" style="fill-opacity: 0.4"/>
     <use xlink:href="#mc92242ccba" x="156.271686" y="76.374891" style="fill-opacity: 0.4"/>
     <use xlink:href="#mc92242ccba" x="154.118077" y="159.094214" style="fill-opacity: 0.4"/>
     <use xlink:href="#mc92242ccba" x="159.874813" y="85.000066" style="fill-opacity: 0.4"/>
     <use xlink:href="#mc92242ccba" x="164.617338" y="100.134915" style="fill-opacity: 0.4"/>
     <use xlink:href="#mc92242ccba" x="150.638421" y="234.118589" style="fill-opacity: 0.4"/>
     <use xlink:href="#mc92242ccba" x="162.257419" y="98.850389" style="fill-opacity: 0.4"/>
     <use xlink:href="#mc92242ccba" x="147.250394" y="264.96" style="fill-opacity: 0.4"/>
     <use xlink:href="#mc92242ccba" x="140.88609" y="114.814571" style="fill-opacity: 0.4"/>
     <use xlink:href="#mc92242ccba" x="140.953519" y="249.5059" style="fill-opacity: 0.4"/>
     <use xlink:href="#mc92242ccba" x="161.968756" y="124.347202" style="fill-opacity: 0.4"/>
     <use xlink:href="#mc92242ccba" x="157.239826" y="201.765103" style="fill-opacity: 0.4"/>
     <use xlink:href="#mc92242ccba" x="160.592526" y="80.954535" style="fill-opacity: 0.4"/>
     <use xlink:href="#mc92242ccba" x="145.162714" y="78.250032" style="fill-opacity: 0.4"/>
     <use xlink:href="#mc92242ccba" x="140.964352" y="75.141655" style="fill-opacity: 0.4"/>
     <use xlink:href="#mc92242ccba" x="155.683098" y="219.892084" style="fill-opacity: 0.4"/>
     <use xlink:href="#mc92242ccba" x="151.666856" y="86.298367" style="fill-opacity: 0.4"/>
     <use xlink:href="#mc92242ccba" x="152.607855" y="200.243927" style="fill-opacity: 0.4"/>
     <use xlink:href="#mc92242ccba" x="161.027336" y="81.511901" style="fill-opacity: 0.4"/>
     <use xlink:href="#mc92242ccba" x="159.39877" y="88.693612" style="fill-opacity: 0.4"/>
     <use xlink:href="#mc92242ccba" x="151.83896" y="74.972583" style="fill-opacity: 0.4"/>
     <use xlink:href="#mc92242ccba" x="165.562692" y="258.642981" style="fill-opacity: 0.4"/>
     <use xlink:href="#mc92242ccba" x="159.916348" y="77.93619" style="fill-opacity: 0.4"/>
     <use xlink:href="#mc92242ccba" x="150.41058" y="201.247292" style="fill-opacity: 0.4"/>
     <use xlink:href="#mc92242ccba" x="155.932882" y="200.08069" style="fill-opacity: 0.4"/>
     <use xlink:href="#mc92242ccba" x="162.563073" y="255.197501" style="fill-opacity: 0.4"/>
     <use xlink:href="#mc92242ccba" x="143.340566" y="256.858662" style="fill-opacity: 0.4"/>
     <use xlink:href="#mc92242ccba" x="152.288824" y="144.75484" style="fill-opacity: 0.4"/>
     <use xlink:href="#mc92242ccba" x="143.661016" y="101.41878" style="fill-opacity: 0.4"/>
     <use xlink:href="#mc92242ccba" x="159.408537" y="120.230903" style="fill-opacity: 0.4"/>
     <use xlink:href="#mc92242ccba" x="141.599644" y="74.919485" style="fill-opacity: 0.4"/>
     <use xlink:href="#mc92242ccba" x="144.401749" y="84.777013" style="fill-opacity: 0.4"/>
     <use xlink:href="#mc92242ccba" x="161.026376" y="287.021794" style="fill-opacity: 0.4"/>
     <use xlink:href="#mc92242ccba" x="148.93269" y="194.449101" style="fill-opacity: 0.4"/>
     <use xlink:href="#mc92242ccba" x="155.9097" y="93.427715" style="fill-opacity: 0.4"/>
     <use xlink:href="#mc92242ccba" x="165.912356" y="252.183912" style="fill-opacity: 0.4"/>
     <use xlink:href="#mc92242ccba" x="161.156725" y="77.083312" style="fill-opacity: 0.4"/>
     <use xlink:href="#mc92242ccba" x="152.804331" y="80.144747" style="fill-opacity: 0.4"/>
     <use xlink:href="#mc92242ccba" x="154.194729" y="91.091867" style="fill-opacity: 0.4"/>
     <use xlink:href="#mc92242ccba" x="158.379945" y="287.021794" style="fill-opacity: 0.4"/>
     <use xlink:href="#mc92242ccba" x="149.256463" y="245.976087" style="fill-opacity: 0.4"/>
     <use xlink:href="#mc92242ccba" x="144.304088" y="273.547765" style="fill-opacity: 0.4"/>
     <use xlink:href="#mc92242ccba" x="146.949995" y="209.761985" style="fill-opacity: 0.4"/>
     <use xlink:href="#mc92242ccba" x="147.373907" y="303.710897" style="fill-opacity: 0.4"/>
     <use xlink:href="#mc92242ccba" x="165.359562" y="74.099362" style="fill-opacity: 0.4"/>
     <use xlink:href="#mc92242ccba" x="150.179883" y="81.155194" style="fill-opacity: 0.4"/>
    </g>
   </g>
   <g id="PathCollection_2">
    <g clip-path="url(#pbecb1b824f)">
     <use xlink:href="#mc92242ccba" x="270.574536" y="125.297134" style="fill-opacity: 0.4"/>
     <use xlink:href="#mc92242ccba" x="286.925501" y="153.983883" style="fill-opacity: 0.4"/>
     <use xlink:href="#mc92242ccba" x="285.462525" y="110.951336" style="fill-opacity: 0.4"/>
     <use xlink:href="#mc92242ccba" x="282.321618" y="216.769793" style="fill-opacity: 0.4"/>
     <use xlink:href="#mc92242ccba" x="286.472597" y="234.796868" style="fill-opacity: 0.4"/>
     <use xlink:href="#mc92242ccba" x="284.61694" y="270.332691" style="fill-opacity: 0.4"/>
     <use xlink:href="#mc92242ccba" x="290.651362" y="250.807692" style="fill-opacity: 0.4"/>
     <use xlink:href="#mc92242ccba" x="282.821869" y="179.15137" style="fill-opacity: 0.4"/>
     <use xlink:href="#mc92242ccba" x="273.810428" y="267.496795" style="fill-opacity: 0.4"/>
    </g>
   </g>
   <g id="text_10">
    <!-- a -->
    <g transform="translate(52.489176 43.017187) scale(0.18 -0.18)">
     <defs>
      <path id="DejaVuSans-Bold-61" d="M 2106 1575 
Q 1756 1575 1579 1456 
Q 1403 1338 1403 1106 
Q 1403 894 1545 773 
Q 1688 653 1941 653 
Q 2256 653 2472 879 
Q 2688 1106 2688 1447 
L 2688 1575 
L 2106 1575 
z
M 3816 1997 
L 3816 0 
L 2688 0 
L 2688 519 
Q 2463 200 2181 54 
Q 1900 -91 1497 -91 
Q 953 -91 614 226 
Q 275 544 275 1050 
Q 275 1666 698 1953 
Q 1122 2241 2028 2241 
L 2688 2241 
L 2688 2328 
Q 2688 2594 2478 2717 
Q 2269 2841 1825 2841 
Q 1466 2841 1156 2769 
Q 847 2697 581 2553 
L 581 3406 
Q 941 3494 1303 3539 
Q 1666 3584 2028 3584 
Q 2975 3584 3395 3211 
Q 3816 2838 3816 1997 
z
" transform="scale(0.015625)"/>
     </defs>
     <use xlink:href="#DejaVuSans-Bold-61"/>
    </g>
   </g>
   <g id="text_11">
    <!-- Haemophilus -->
    <g transform="translate(172.781932 37.2) scale(0.12 -0.12)">
     <defs>
      <path id="DejaVuSans-Bold-48" d="M 588 4666 
L 1791 4666 
L 1791 2888 
L 3566 2888 
L 3566 4666 
L 4769 4666 
L 4769 0 
L 3566 0 
L 3566 1978 
L 1791 1978 
L 1791 0 
L 588 0 
L 588 4666 
z
" transform="scale(0.015625)"/>
      <path id="DejaVuSans-Bold-65" d="M 4031 1759 
L 4031 1441 
L 1416 1441 
Q 1456 1047 1700 850 
Q 1944 653 2381 653 
Q 2734 653 3104 758 
Q 3475 863 3866 1075 
L 3866 213 
Q 3469 63 3072 -14 
Q 2675 -91 2278 -91 
Q 1328 -91 801 392 
Q 275 875 275 1747 
Q 275 2603 792 3093 
Q 1309 3584 2216 3584 
Q 3041 3584 3536 3087 
Q 4031 2591 4031 1759 
z
M 2881 2131 
Q 2881 2450 2695 2645 
Q 2509 2841 2209 2841 
Q 1884 2841 1681 2658 
Q 1478 2475 1428 2131 
L 2881 2131 
z
" transform="scale(0.015625)"/>
      <path id="DejaVuSans-Bold-6d" d="M 3781 2919 
Q 3994 3244 4286 3414 
Q 4578 3584 4928 3584 
Q 5531 3584 5847 3212 
Q 6163 2841 6163 2131 
L 6163 0 
L 5038 0 
L 5038 1825 
Q 5041 1866 5042 1909 
Q 5044 1953 5044 2034 
Q 5044 2406 4934 2573 
Q 4825 2741 4581 2741 
Q 4263 2741 4089 2478 
Q 3916 2216 3909 1719 
L 3909 0 
L 2784 0 
L 2784 1825 
Q 2784 2406 2684 2573 
Q 2584 2741 2328 2741 
Q 2006 2741 1831 2477 
Q 1656 2213 1656 1722 
L 1656 0 
L 531 0 
L 531 3500 
L 1656 3500 
L 1656 2988 
Q 1863 3284 2130 3434 
Q 2397 3584 2719 3584 
Q 3081 3584 3359 3409 
Q 3638 3234 3781 2919 
z
" transform="scale(0.015625)"/>
      <path id="DejaVuSans-Bold-6f" d="M 2203 2784 
Q 1831 2784 1636 2517 
Q 1441 2250 1441 1747 
Q 1441 1244 1636 976 
Q 1831 709 2203 709 
Q 2569 709 2762 976 
Q 2956 1244 2956 1747 
Q 2956 2250 2762 2517 
Q 2569 2784 2203 2784 
z
M 2203 3584 
Q 3106 3584 3614 3096 
Q 4122 2609 4122 1747 
Q 4122 884 3614 396 
Q 3106 -91 2203 -91 
Q 1297 -91 786 396 
Q 275 884 275 1747 
Q 275 2609 786 3096 
Q 1297 3584 2203 3584 
z
" transform="scale(0.015625)"/>
      <path id="DejaVuSans-Bold-70" d="M 1656 506 
L 1656 -1331 
L 538 -1331 
L 538 3500 
L 1656 3500 
L 1656 2988 
Q 1888 3294 2169 3439 
Q 2450 3584 2816 3584 
Q 3463 3584 3878 3070 
Q 4294 2556 4294 1747 
Q 4294 938 3878 423 
Q 3463 -91 2816 -91 
Q 2450 -91 2169 54 
Q 1888 200 1656 506 
z
M 2400 2772 
Q 2041 2772 1848 2508 
Q 1656 2244 1656 1747 
Q 1656 1250 1848 986 
Q 2041 722 2400 722 
Q 2759 722 2948 984 
Q 3138 1247 3138 1747 
Q 3138 2247 2948 2509 
Q 2759 2772 2400 2772 
z
" transform="scale(0.015625)"/>
      <path id="DejaVuSans-Bold-68" d="M 4056 2131 
L 4056 0 
L 2931 0 
L 2931 347 
L 2931 1625 
Q 2931 2084 2911 2256 
Q 2891 2428 2841 2509 
Q 2775 2619 2662 2680 
Q 2550 2741 2406 2741 
Q 2056 2741 1856 2470 
Q 1656 2200 1656 1722 
L 1656 0 
L 538 0 
L 538 4863 
L 1656 4863 
L 1656 2988 
Q 1909 3294 2193 3439 
Q 2478 3584 2822 3584 
Q 3428 3584 3742 3212 
Q 4056 2841 4056 2131 
z
" transform="scale(0.015625)"/>
      <path id="DejaVuSans-Bold-69" d="M 538 3500 
L 1656 3500 
L 1656 0 
L 538 0 
L 538 3500 
z
M 538 4863 
L 1656 4863 
L 1656 3950 
L 538 3950 
L 538 4863 
z
" transform="scale(0.015625)"/>
      <path id="DejaVuSans-Bold-6c" d="M 538 4863 
L 1656 4863 
L 1656 0 
L 538 0 
L 538 4863 
z
" transform="scale(0.015625)"/>
      <path id="DejaVuSans-Bold-75" d="M 500 1363 
L 500 3500 
L 1625 3500 
L 1625 3150 
Q 1625 2866 1622 2436 
Q 1619 2006 1619 1863 
Q 1619 1441 1641 1255 
Q 1663 1069 1716 984 
Q 1784 875 1895 815 
Q 2006 756 2150 756 
Q 2500 756 2700 1025 
Q 2900 1294 2900 1772 
L 2900 3500 
L 4019 3500 
L 4019 0 
L 2900 0 
L 2900 506 
Q 2647 200 2364 54 
Q 2081 -91 1741 -91 
Q 1134 -91 817 281 
Q 500 653 500 1363 
z
" transform="scale(0.015625)"/>
      <path id="DejaVuSans-Bold-73" d="M 3272 3391 
L 3272 2541 
Q 2913 2691 2578 2766 
Q 2244 2841 1947 2841 
Q 1628 2841 1473 2761 
Q 1319 2681 1319 2516 
Q 1319 2381 1436 2309 
Q 1553 2238 1856 2203 
L 2053 2175 
Q 2913 2066 3209 1816 
Q 3506 1566 3506 1031 
Q 3506 472 3093 190 
Q 2681 -91 1863 -91 
Q 1516 -91 1145 -36 
Q 775 19 384 128 
L 384 978 
Q 719 816 1070 734 
Q 1422 653 1784 653 
Q 2113 653 2278 743 
Q 2444 834 2444 1013 
Q 2444 1163 2330 1236 
Q 2216 1309 1875 1350 
L 1678 1375 
Q 931 1469 631 1722 
Q 331 1975 331 2491 
Q 331 3047 712 3315 
Q 1094 3584 1881 3584 
Q 2191 3584 2531 3537 
Q 2872 3491 3272 3391 
z
" transform="scale(0.015625)"/>
     </defs>
     <use xlink:href="#DejaVuSans-Bold-48"/>
     <use xlink:href="#DejaVuSans-Bold-61" transform="translate(83.691406 0)"/>
     <use xlink:href="#DejaVuSans-Bold-65" transform="translate(151.171875 0)"/>
     <use xlink:href="#DejaVuSans-Bold-6d" transform="translate(218.994141 0)"/>
     <use xlink:href="#DejaVuSans-Bold-6f" transform="translate(323.193359 0)"/>
     <use xlink:href="#DejaVuSans-Bold-70" transform="translate(391.894531 0)"/>
     <use xlink:href="#DejaVuSans-Bold-68" transform="translate(463.476562 0)"/>
     <use xlink:href="#DejaVuSans-Bold-69" transform="translate(534.667969 0)"/>
     <use xlink:href="#DejaVuSans-Bold-6c" transform="translate(568.945312 0)"/>
     <use xlink:href="#DejaVuSans-Bold-75" transform="translate(603.222656 0)"/>
     <use xlink:href="#DejaVuSans-Bold-73" transform="translate(674.414062 0)"/>
    </g>
   </g>
  </g>
  <g id="axes_2">
   <g id="patch_7">
    <path d="M 394.363636 320.4 
L 648 320.4 
L 648 43.2 
L 394.363636 43.2 
z
" style="fill: #ffffff"/>
   </g>
   <g id="FillBetweenPolyCollection_3">
    <path d="M 464.145985 55760.4 
L 451.399469 55760.4 
L 448.415557 55760.4 
L 444.566356 55760.4 
L 439.854099 55760.4 
L 434.398374 55760.4 
L 428.455332 55760.4 
L 422.413177 55760.4 
L 416.758241 55760.4 
L 412.01319 55760.4 
L 408.657292 55760.4 
L 407.045455 55760.4 
L 407.34509 230.077345 
L 409.506545 213.182576 
L 413.274403 203.35191 
L 418.236269 196.391295 
L 423.896141 190.99822 
L 429.754313 186.594832 
L 435.376215 182.873607 
L 440.437901 179.651265 
L 444.743707 176.809717 
L 448.219066 174.268402 
L 450.886398 171.969893 
L 452.833588 169.871814 
L 454.183238 167.941996 
L 455.067879 166.155443 
L 455.613092 164.492346 
L 455.927998 162.936739 
L 456.101287 161.475568 
L 456.200705 160.09802 
L 456.274399 158.79504 
L 456.35314 157.558967 
L 456.453026 156.383264 
L 456.578528 155.262309 
L 456.725769 154.191228 
L 456.885863 153.165771 
L 457.04799 152.182211 
L 457.201903 151.237258 
L 457.339634 150.327994 
L 457.456303 149.451822 
L 457.550156 148.606418 
L 457.622028 147.789694 
L 457.67452 146.999767 
L 457.711136 146.234935 
L 457.735556 145.493652 
L 457.751141 144.774511 
L 457.760666 144.076229 
L 457.766243 143.397628 
L 457.769374 142.73763 
L 457.771059 142.095242 
L 457.771929 141.469549 
L 457.77236 140.859704 
L 457.772565 140.264925 
L 457.772658 139.684486 
L 457.772699 139.11771 
L 457.772715 138.56397 
L 457.772721 138.02268 
L 457.77272 137.493291 
L 457.772711 136.975292 
L 457.772688 136.468203 
L 457.772634 135.971574 
L 457.772515 135.484982 
L 457.772263 135.008029 
L 457.771751 134.540341 
L 457.770755 134.081565 
L 457.768897 133.631367 
L 457.76558 133.189432 
L 457.75991 132.755464 
L 457.750637 132.329179 
L 457.736134 131.91031 
L 457.714455 131.498604 
L 457.683513 131.093819 
L 457.641385 130.695727 
L 457.586727 130.304111 
L 457.519248 129.918762 
L 457.440103 129.539484 
L 457.352092 129.166087 
L 457.25952 128.798393 
L 457.167689 128.43623 
L 457.08207 128.079434 
L 457.007352 127.727848 
L 456.946628 127.381322 
L 456.900975 127.039713 
L 456.869594 126.702882 
L 456.850477 126.370699 
L 456.841399 126.043037 
L 456.840891 125.719774 
L 456.84886 125.400794 
L 456.866629 125.085984 
L 456.896379 124.775237 
L 456.940201 124.46845 
L 456.999089 124.165523 
L 457.072215 123.86636 
L 457.15672 123.570868 
L 457.248076 123.278959 
L 457.340854 122.990546 
L 457.429685 122.705548 
L 457.510104 122.423883 
L 457.579113 122.145476 
L 457.635357 121.870251 
L 457.678971 121.598136 
L 457.866484 121.598136 
L 457.866484 121.598136 
L 457.910097 121.870251 
L 457.966342 122.145476 
L 458.035351 122.423883 
L 458.11577 122.705548 
L 458.204601 122.990546 
L 458.297379 123.278959 
L 458.388734 123.570868 
L 458.47324 123.86636 
L 458.546365 124.165523 
L 458.605253 124.46845 
L 458.649076 124.775237 
L 458.678825 125.085984 
L 458.696594 125.400794 
L 458.704564 125.719774 
L 458.704055 126.043037 
L 458.694977 126.370699 
L 458.675861 126.702882 
L 458.64448 127.039713 
L 458.598827 127.381322 
L 458.538102 127.727848 
L 458.463384 128.079434 
L 458.377765 128.43623 
L 458.285934 128.798393 
L 458.193363 129.166087 
L 458.105352 129.539484 
L 458.026207 129.918762 
L 457.958727 130.304111 
L 457.904069 130.695727 
L 457.861941 131.093819 
L 457.831 131.498604 
L 457.809321 131.91031 
L 457.794817 132.329179 
L 457.785544 132.755464 
L 457.779874 133.189432 
L 457.776557 133.631367 
L 457.7747 134.081565 
L 457.773704 134.540341 
L 457.773192 135.008029 
L 457.772939 135.484982 
L 457.772821 135.971574 
L 457.772767 136.468203 
L 457.772744 136.975292 
L 457.772735 137.493291 
L 457.772734 138.02268 
L 457.772739 138.56397 
L 457.772756 139.11771 
L 457.772797 139.684486 
L 457.77289 140.264925 
L 457.773095 140.859704 
L 457.773526 141.469549 
L 457.774396 142.095242 
L 457.776081 142.73763 
L 457.779211 143.397628 
L 457.784789 144.076229 
L 457.794314 144.774511 
L 457.809899 145.493652 
L 457.834319 146.234935 
L 457.870934 146.999767 
L 457.923426 147.789694 
L 457.995299 148.606418 
L 458.089152 149.451822 
L 458.205821 150.327994 
L 458.343551 151.237258 
L 458.497465 152.182211 
L 458.659591 153.165771 
L 458.819685 154.191228 
L 458.966927 155.262309 
L 459.092428 156.383264 
L 459.192315 157.558967 
L 459.271055 158.79504 
L 459.344749 160.09802 
L 459.444168 161.475568 
L 459.617457 162.936739 
L 459.932363 164.492346 
L 460.477576 166.155443 
L 461.362217 167.941996 
L 462.711867 169.871814 
L 464.659056 171.969893 
L 467.326388 174.268402 
L 470.801748 176.809717 
L 475.107554 179.651265 
L 480.16924 182.873607 
L 485.791142 186.594832 
L 491.649314 190.99822 
L 497.309186 196.391295 
L 502.271052 203.35191 
L 506.03891 213.182576 
L 508.200365 230.077345 
L 508.5 55760.4 
L 506.888162 55760.4 
L 503.532265 55760.4 
L 498.787214 55760.4 
L 493.132277 55760.4 
L 487.090122 55760.4 
L 481.147081 55760.4 
L 475.691356 55760.4 
L 470.979099 55760.4 
L 467.129898 55760.4 
L 464.145985 55760.4 
z
" clip-path="url(#pe5cc023973)" style="fill: #e98e83; stroke: #6d6d6d; stroke-width: 1.25"/>
   </g>
   <g id="FillBetweenPolyCollection_4">
    <path d="M 589.861958 55760.4 
L 579.31986 55760.4 
L 578.322423 55760.4 
L 577.188948 55760.4 
L 575.912184 55760.4 
L 574.486828 55760.4 
L 572.909997 55760.4 
L 571.181687 55760.4 
L 569.305199 55760.4 
L 567.287492 55760.4 
L 565.139456 55760.4 
L 562.876071 55760.4 
L 560.516433 55760.4 
L 558.083636 55760.4 
L 555.604493 55760.4 
L 553.109091 55760.4 
L 550.630193 55760.4 
L 548.202499 55760.4 
L 545.861769 55760.4 
L 543.643868 55760.4 
L 541.583736 55760.4 
L 539.714347 55760.4 
L 538.065685 55760.4 
L 536.663792 55760.4 
L 535.529917 55760.4 
L 534.679822 185.92223 
L 534.123255 163.356726 
L 533.863636 151.916017 
L 533.897957 144.192227 
L 534.2169 138.353594 
L 534.805186 133.658093 
L 535.64211 129.730563 
L 536.702268 126.354752 
L 537.956422 123.394575 
L 539.372482 120.758815 
L 540.91655 118.383335 
L 542.553994 116.221319 
L 544.250499 114.237545 
L 545.97307 112.404849 
L 547.690929 110.701839 
L 549.376298 109.111369 
L 551.005025 107.619482 
L 552.557049 106.214667 
L 554.016685 104.887319 
L 555.372737 103.629337 
L 556.618437 102.433832 
L 557.751224 101.294889 
L 558.77239 100.207398 
L 559.6866 99.16691 
L 560.501334 98.16953 
L 561.226265 97.211827 
L 561.872605 96.290765 
L 562.452467 95.403643 
L 562.978241 94.548049 
L 563.462038 93.721818 
L 563.915212 92.923002 
L 564.347964 92.14984 
L 564.769068 91.400734 
L 565.18569 90.674234 
L 565.603323 89.969014 
L 566.025823 89.283863 
L 566.455526 88.617672 
L 566.893442 87.969417 
L 567.339503 87.33816 
L 567.792836 86.723031 
L 568.252053 86.123227 
L 568.715526 85.538002 
L 569.181638 84.966665 
L 569.648993 84.408572 
L 570.116563 83.863122 
L 570.583794 83.329756 
L 571.050633 82.807949 
L 571.51751 82.297212 
L 571.985267 81.797084 
L 572.455042 81.307133 
L 572.928127 80.826954 
L 573.405817 80.356165 
L 573.889248 79.894404 
L 574.379251 79.441333 
L 574.876228 78.996631 
L 575.380061 78.559993 
L 575.890051 78.131132 
L 576.404904 77.709777 
L 576.922748 77.29567 
L 577.441194 76.888564 
L 577.957423 76.488227 
L 578.468294 76.094438 
L 578.970476 75.706986 
L 579.460578 75.32567 
L 579.935285 74.9503 
L 580.391481 74.580691 
L 580.826359 74.216671 
L 581.237509 73.858072 
L 581.622986 73.504736 
L 581.981353 73.156511 
L 582.311695 72.81325 
L 582.613616 72.474814 
L 582.887215 72.141069 
L 583.133041 71.811887 
L 583.352037 71.487146 
L 583.545481 71.166725 
L 585.636337 71.166725 
L 585.636337 71.166725 
L 585.829781 71.487146 
L 586.048778 71.811887 
L 586.294603 72.141069 
L 586.568202 72.474814 
L 586.870123 72.81325 
L 587.200465 73.156511 
L 587.558832 73.504736 
L 587.944309 73.858072 
L 588.35546 74.216671 
L 588.790337 74.580691 
L 589.246533 74.9503 
L 589.721241 75.32567 
L 590.211342 75.706986 
L 590.713524 76.094438 
L 591.224395 76.488227 
L 591.740624 76.888564 
L 592.25907 77.29567 
L 592.776915 77.709777 
L 593.291767 78.131132 
L 593.801757 78.559993 
L 594.30559 78.996631 
L 594.802568 79.441333 
L 595.29257 79.894404 
L 595.776001 80.356165 
L 596.253691 80.826954 
L 596.726777 81.307133 
L 597.196551 81.797084 
L 597.664308 82.297212 
L 598.131186 82.807949 
L 598.598024 83.329756 
L 599.065255 83.863122 
L 599.532826 84.408572 
L 600.00018 84.966665 
L 600.466292 85.538002 
L 600.929765 86.123227 
L 601.388982 86.723031 
L 601.842315 87.33816 
L 602.288376 87.969417 
L 602.726292 88.617672 
L 603.155995 89.283863 
L 603.578495 89.969014 
L 603.996128 90.674234 
L 604.41275 91.400734 
L 604.833854 92.14984 
L 605.266606 92.923002 
L 605.71978 93.721818 
L 606.203578 94.548049 
L 606.729351 95.403643 
L 607.309213 96.290765 
L 607.955554 97.211827 
L 608.680484 98.16953 
L 609.495218 99.16691 
L 610.409428 100.207398 
L 611.430594 101.294889 
L 612.563381 102.433832 
L 613.809081 103.629337 
L 615.165133 104.887319 
L 616.624769 106.214667 
L 618.176793 107.619482 
L 619.80552 109.111369 
L 621.490889 110.701839 
L 623.208748 112.404849 
L 624.931319 114.237545 
L 626.627825 116.221319 
L 628.265268 118.383335 
L 629.809337 120.758815 
L 631.225397 123.394575 
L 632.479551 126.354752 
L 633.539708 129.730563 
L 634.376632 133.658093 
L 634.964918 138.353594 
L 635.283862 144.192227 
L 635.318182 151.916017 
L 635.058563 163.356726 
L 634.501996 185.92223 
L 633.651901 55760.4 
L 632.518027 55760.4 
L 631.116133 55760.4 
L 629.467471 55760.4 
L 627.598082 55760.4 
L 625.53795 55760.4 
L 623.320049 55760.4 
L 620.979319 55760.4 
L 618.551625 55760.4 
L 616.072727 55760.4 
L 613.577325 55760.4 
L 611.098182 55760.4 
L 608.665386 55760.4 
L 606.305748 55760.4 
L 604.042362 55760.4 
L 601.894326 55760.4 
L 599.876619 55760.4 
L 598.000131 55760.4 
L 596.271822 55760.4 
L 594.69499 55760.4 
L 593.269634 55760.4 
L 591.99287 55760.4 
L 590.859395 55760.4 
L 589.861958 55760.4 
z
" clip-path="url(#pe5cc023973)" style="fill: #94c9de; stroke: #6d6d6d; stroke-width: 1.25"/>
   </g>
   <g id="matplotlib.axis_3">
    <g id="xtick_3">
     <g id="line2d_55">
      <g>
       <use xlink:href="#mce730df37b" x="457.772727" y="320.4" style="stroke: #000000; stroke-width: 0.8"/>
      </g>
     </g>
     <g id="text_12">
      <!-- Bronchiolitis -->
      <g transform="translate(427.072727 334.998438) scale(0.1 -0.1)">
       <use xlink:href="#DejaVuSans-42"/>
       <use xlink:href="#DejaVuSans-72" transform="translate(68.603516 0)"/>
       <use xlink:href="#DejaVuSans-6f" transform="translate(107.466797 0)"/>
       <use xlink:href="#DejaVuSans-6e" transform="translate(168.648438 0)"/>
       <use xlink:href="#DejaVuSans-63" transform="translate(232.027344 0)"/>
       <use xlink:href="#DejaVuSans-68" transform="translate(287.007812 0)"/>
       <use xlink:href="#DejaVuSans-69" transform="translate(350.386719 0)"/>
       <use xlink:href="#DejaVuSans-6f" transform="translate(378.169922 0)"/>
       <use xlink:href="#DejaVuSans-6c" transform="translate(439.351562 0)"/>
       <use xlink:href="#DejaVuSans-69" transform="translate(467.134766 0)"/>
       <use xlink:href="#DejaVuSans-74" transform="translate(494.917969 0)"/>
       <use xlink:href="#DejaVuSans-69" transform="translate(534.126953 0)"/>
       <use xlink:href="#DejaVuSans-73" transform="translate(561.910156 0)"/>
      </g>
     </g>
    </g>
    <g id="xtick_4">
     <g id="line2d_56">
      <g>
       <use xlink:href="#mce730df37b" x="584.590909" y="320.4" style="stroke: #000000; stroke-width: 0.8"/>
      </g>
     </g>
     <g id="text_13">
      <!-- Control -->
      <g transform="translate(566.519815 334.998438) scale(0.1 -0.1)">
       <use xlink:href="#DejaVuSans-43"/>
       <use xlink:href="#DejaVuSans-6f" transform="translate(69.824219 0)"/>
       <use xlink:href="#DejaVuSans-6e" transform="translate(131.005859 0)"/>
       <use xlink:href="#DejaVuSans-74" transform="translate(194.384766 0)"/>
       <use xlink:href="#DejaVuSans-72" transform="translate(233.59375 0)"/>
       <use xlink:href="#DejaVuSans-6f" transform="translate(272.457031 0)"/>
       <use xlink:href="#DejaVuSans-6c" transform="translate(333.638672 0)"/>
      </g>
     </g>
    </g>
   </g>
   <g id="matplotlib.axis_4">
    <g id="ytick_47">
     <g id="line2d_57">
      <g>
       <use xlink:href="#me5071f2abb" x="394.363636" y="320.4" style="stroke: #000000; stroke-width: 0.8"/>
      </g>
     </g>
     <g id="text_14">
      <!-- $\mathdefault{10^{0}}$ -->
      <g transform="translate(369.763636 324.199219) scale(0.1 -0.1)">
       <use xlink:href="#DejaVuSans-31" transform="translate(0 0.765625)"/>
       <use xlink:href="#DejaVuSans-30" transform="translate(63.623047 0.765625)"/>
       <use xlink:href="#DejaVuSans-30" transform="translate(128.203125 39.046875) scale(0.7)"/>
      </g>
     </g>
    </g>
    <g id="ytick_48">
     <g id="line2d_58">
      <g>
       <use xlink:href="#me5071f2abb" x="394.363636" y="264.96" style="stroke: #000000; stroke-width: 0.8"/>
      </g>
     </g>
     <g id="text_15">
      <!-- $\mathdefault{10^{1}}$ -->
      <g transform="translate(369.763636 268.759219) scale(0.1 -0.1)">
       <use xlink:href="#DejaVuSans-31" transform="translate(0 0.684375)"/>
       <use xlink:href="#DejaVuSans-30" transform="translate(63.623047 0.684375)"/>
       <use xlink:href="#DejaVuSans-31" transform="translate(128.203125 38.965625) scale(0.7)"/>
      </g>
     </g>
    </g>
    <g id="ytick_49">
     <g id="line2d_59">
      <g>
       <use xlink:href="#me5071f2abb" x="394.363636" y="209.52" style="stroke: #000000; stroke-width: 0.8"/>
      </g>
     </g>
     <g id="text_16">
      <!-- $\mathdefault{10^{2}}$ -->
      <g transform="translate(369.763636 213.319219) scale(0.1 -0.1)">
       <use xlink:href="#DejaVuSans-31" transform="translate(0 0.765625)"/>
       <use xlink:href="#DejaVuSans-30" transform="translate(63.623047 0.765625)"/>
       <use xlink:href="#DejaVuSans-32" transform="translate(128.203125 39.046875) scale(0.7)"/>
      </g>
     </g>
    </g>
    <g id="ytick_50">
     <g id="line2d_60">
      <g>
       <use xlink:href="#me5071f2abb" x="394.363636" y="154.08" style="stroke: #000000; stroke-width: 0.8"/>
      </g>
     </g>
     <g id="text_17">
      <!-- $\mathdefault{10^{3}}$ -->
      <g transform="translate(369.763636 157.879219) scale(0.1 -0.1)">
       <use xlink:href="#DejaVuSans-31" transform="translate(0 0.765625)"/>
       <use xlink:href="#DejaVuSans-30" transform="translate(63.623047 0.765625)"/>
       <use xlink:href="#DejaVuSans-33" transform="translate(128.203125 39.046875) scale(0.7)"/>
      </g>
     </g>
    </g>
    <g id="ytick_51">
     <g id="line2d_61">
      <g>
       <use xlink:href="#me5071f2abb" x="394.363636" y="98.64" style="stroke: #000000; stroke-width: 0.8"/>
      </g>
     </g>
     <g id="text_18">
      <!-- $\mathdefault{10^{4}}$ -->
      <g transform="translate(369.763636 102.439219) scale(0.1 -0.1)">
       <use xlink:href="#DejaVuSans-31" transform="translate(0 0.684375)"/>
       <use xlink:href="#DejaVuSans-30" transform="translate(63.623047 0.684375)"/>
       <use xlink:href="#DejaVuSans-34" transform="translate(128.203125 38.965625) scale(0.7)"/>
      </g>
     </g>
    </g>
    <g id="ytick_52">
     <g id="line2d_62">
      <g>
       <use xlink:href="#me5071f2abb" x="394.363636" y="43.2" style="stroke: #000000; stroke-width: 0.8"/>
      </g>
     </g>
     <g id="text_19">
      <!-- $\mathdefault{10^{5}}$ -->
      <g transform="translate(369.763636 46.999219) scale(0.1 -0.1)">
       <use xlink:href="#DejaVuSans-31" transform="translate(0 0.684375)"/>
       <use xlink:href="#DejaVuSans-30" transform="translate(63.623047 0.684375)"/>
       <use xlink:href="#DejaVuSans-35" transform="translate(128.203125 38.965625) scale(0.7)"/>
      </g>
     </g>
    </g>
    <g id="ytick_53">
     <g id="line2d_63">
      <g>
       <use xlink:href="#m330480af26" x="394.363636" y="303.710897" style="stroke: #000000; stroke-width: 0.6"/>
      </g>
     </g>
    </g>
    <g id="ytick_54">
     <g id="line2d_64">
      <g>
       <use xlink:href="#m330480af26" x="394.363636" y="293.948398" style="stroke: #000000; stroke-width: 0.6"/>
      </g>
     </g>
    </g>
    <g id="ytick_55">
     <g id="line2d_65">
      <g>
       <use xlink:href="#m330480af26" x="394.363636" y="287.021794" style="stroke: #000000; stroke-width: 0.6"/>
      </g>
     </g>
    </g>
    <g id="ytick_56">
     <g id="line2d_66">
      <g>
       <use xlink:href="#m330480af26" x="394.363636" y="281.649103" style="stroke: #000000; stroke-width: 0.6"/>
      </g>
     </g>
    </g>
    <g id="ytick_57">
     <g id="line2d_67">
      <g>
       <use xlink:href="#m330480af26" x="394.363636" y="277.259295" style="stroke: #000000; stroke-width: 0.6"/>
      </g>
     </g>
    </g>
    <g id="ytick_58">
     <g id="line2d_68">
      <g>
       <use xlink:href="#m330480af26" x="394.363636" y="273.547765" style="stroke: #000000; stroke-width: 0.6"/>
      </g>
     </g>
    </g>
    <g id="ytick_59">
     <g id="line2d_69">
      <g>
       <use xlink:href="#m330480af26" x="394.363636" y="270.332691" style="stroke: #000000; stroke-width: 0.6"/>
      </g>
     </g>
    </g>
    <g id="ytick_60">
     <g id="line2d_70">
      <g>
       <use xlink:href="#m330480af26" x="394.363636" y="267.496795" style="stroke: #000000; stroke-width: 0.6"/>
      </g>
     </g>
    </g>
    <g id="ytick_61">
     <g id="line2d_71">
      <g>
       <use xlink:href="#m330480af26" x="394.363636" y="248.270897" style="stroke: #000000; stroke-width: 0.6"/>
      </g>
     </g>
    </g>
    <g id="ytick_62">
     <g id="line2d_72">
      <g>
       <use xlink:href="#m330480af26" x="394.363636" y="238.508398" style="stroke: #000000; stroke-width: 0.6"/>
      </g>
     </g>
    </g>
    <g id="ytick_63">
     <g id="line2d_73">
      <g>
       <use xlink:href="#m330480af26" x="394.363636" y="231.581794" style="stroke: #000000; stroke-width: 0.6"/>
      </g>
     </g>
    </g>
    <g id="ytick_64">
     <g id="line2d_74">
      <g>
       <use xlink:href="#m330480af26" x="394.363636" y="226.209103" style="stroke: #000000; stroke-width: 0.6"/>
      </g>
     </g>
    </g>
    <g id="ytick_65">
     <g id="line2d_75">
      <g>
       <use xlink:href="#m330480af26" x="394.363636" y="221.819295" style="stroke: #000000; stroke-width: 0.6"/>
      </g>
     </g>
    </g>
    <g id="ytick_66">
     <g id="line2d_76">
      <g>
       <use xlink:href="#m330480af26" x="394.363636" y="218.107765" style="stroke: #000000; stroke-width: 0.6"/>
      </g>
     </g>
    </g>
    <g id="ytick_67">
     <g id="line2d_77">
      <g>
       <use xlink:href="#m330480af26" x="394.363636" y="214.892691" style="stroke: #000000; stroke-width: 0.6"/>
      </g>
     </g>
    </g>
    <g id="ytick_68">
     <g id="line2d_78">
      <g>
       <use xlink:href="#m330480af26" x="394.363636" y="212.056795" style="stroke: #000000; stroke-width: 0.6"/>
      </g>
     </g>
    </g>
    <g id="ytick_69">
     <g id="line2d_79">
      <g>
       <use xlink:href="#m330480af26" x="394.363636" y="192.830897" style="stroke: #000000; stroke-width: 0.6"/>
      </g>
     </g>
    </g>
    <g id="ytick_70">
     <g id="line2d_80">
      <g>
       <use xlink:href="#m330480af26" x="394.363636" y="183.068398" style="stroke: #000000; stroke-width: 0.6"/>
      </g>
     </g>
    </g>
    <g id="ytick_71">
     <g id="line2d_81">
      <g>
       <use xlink:href="#m330480af26" x="394.363636" y="176.141794" style="stroke: #000000; stroke-width: 0.6"/>
      </g>
     </g>
    </g>
    <g id="ytick_72">
     <g id="line2d_82">
      <g>
       <use xlink:href="#m330480af26" x="394.363636" y="170.769103" style="stroke: #000000; stroke-width: 0.6"/>
      </g>
     </g>
    </g>
    <g id="ytick_73">
     <g id="line2d_83">
      <g>
       <use xlink:href="#m330480af26" x="394.363636" y="166.379295" style="stroke: #000000; stroke-width: 0.6"/>
      </g>
     </g>
    </g>
    <g id="ytick_74">
     <g id="line2d_84">
      <g>
       <use xlink:href="#m330480af26" x="394.363636" y="162.667765" style="stroke: #000000; stroke-width: 0.6"/>
      </g>
     </g>
    </g>
    <g id="ytick_75">
     <g id="line2d_85">
      <g>
       <use xlink:href="#m330480af26" x="394.363636" y="159.452691" style="stroke: #000000; stroke-width: 0.6"/>
      </g>
     </g>
    </g>
    <g id="ytick_76">
     <g id="line2d_86">
      <g>
       <use xlink:href="#m330480af26" x="394.363636" y="156.616795" style="stroke: #000000; stroke-width: 0.6"/>
      </g>
     </g>
    </g>
    <g id="ytick_77">
     <g id="line2d_87">
      <g>
       <use xlink:href="#m330480af26" x="394.363636" y="137.390897" style="stroke: #000000; stroke-width: 0.6"/>
      </g>
     </g>
    </g>
    <g id="ytick_78">
     <g id="line2d_88">
      <g>
       <use xlink:href="#m330480af26" x="394.363636" y="127.628398" style="stroke: #000000; stroke-width: 0.6"/>
      </g>
     </g>
    </g>
    <g id="ytick_79">
     <g id="line2d_89">
      <g>
       <use xlink:href="#m330480af26" x="394.363636" y="120.701794" style="stroke: #000000; stroke-width: 0.6"/>
      </g>
     </g>
    </g>
    <g id="ytick_80">
     <g id="line2d_90">
      <g>
       <use xlink:href="#m330480af26" x="394.363636" y="115.329103" style="stroke: #000000; stroke-width: 0.6"/>
      </g>
     </g>
    </g>
    <g id="ytick_81">
     <g id="line2d_91">
      <g>
       <use xlink:href="#m330480af26" x="394.363636" y="110.939295" style="stroke: #000000; stroke-width: 0.6"/>
      </g>
     </g>
    </g>
    <g id="ytick_82">
     <g id="line2d_92">
      <g>
       <use xlink:href="#m330480af26" x="394.363636" y="107.227765" style="stroke: #000000; stroke-width: 0.6"/>
      </g>
     </g>
    </g>
    <g id="ytick_83">
     <g id="line2d_93">
      <g>
       <use xlink:href="#m330480af26" x="394.363636" y="104.012691" style="stroke: #000000; stroke-width: 0.6"/>
      </g>
     </g>
    </g>
    <g id="ytick_84">
     <g id="line2d_94">
      <g>
       <use xlink:href="#m330480af26" x="394.363636" y="101.176795" style="stroke: #000000; stroke-width: 0.6"/>
      </g>
     </g>
    </g>
    <g id="ytick_85">
     <g id="line2d_95">
      <g>
       <use xlink:href="#m330480af26" x="394.363636" y="81.950897" style="stroke: #000000; stroke-width: 0.6"/>
      </g>
     </g>
    </g>
    <g id="ytick_86">
     <g id="line2d_96">
      <g>
       <use xlink:href="#m330480af26" x="394.363636" y="72.188398" style="stroke: #000000; stroke-width: 0.6"/>
      </g>
     </g>
    </g>
    <g id="ytick_87">
     <g id="line2d_97">
      <g>
       <use xlink:href="#m330480af26" x="394.363636" y="65.261794" style="stroke: #000000; stroke-width: 0.6"/>
      </g>
     </g>
    </g>
    <g id="ytick_88">
     <g id="line2d_98">
      <g>
       <use xlink:href="#m330480af26" x="394.363636" y="59.889103" style="stroke: #000000; stroke-width: 0.6"/>
      </g>
     </g>
    </g>
    <g id="ytick_89">
     <g id="line2d_99">
      <g>
       <use xlink:href="#m330480af26" x="394.363636" y="55.499295" style="stroke: #000000; stroke-width: 0.6"/>
      </g>
     </g>
    </g>
    <g id="ytick_90">
     <g id="line2d_100">
      <g>
       <use xlink:href="#m330480af26" x="394.363636" y="51.787765" style="stroke: #000000; stroke-width: 0.6"/>
      </g>
     </g>
    </g>
    <g id="ytick_91">
     <g id="line2d_101">
      <g>
       <use xlink:href="#m330480af26" x="394.363636" y="48.572691" style="stroke: #000000; stroke-width: 0.6"/>
      </g>
     </g>
    </g>
    <g id="ytick_92">
     <g id="line2d_102">
      <g>
       <use xlink:href="#m330480af26" x="394.363636" y="45.736795" style="stroke: #000000; stroke-width: 0.6"/>
      </g>
     </g>
    </g>
   </g>
   <g id="line2d_103">
    <path d="M 457.772727 361 
L 457.772727 262.66519 
" clip-path="url(#pe5cc023973)" style="fill: none; stroke: #6d6d6d; stroke-width: 1.875; stroke-linecap: square"/>
   </g>
   <g id="line2d_104">
    <path d="M 457.772727 361 
L 457.772727 280.474368 
" clip-path="url(#pe5cc023973)" style="fill: none; stroke: #6d6d6d; stroke-width: 5.625; stroke-linecap: square"/>
   </g>
   <g id="line2d_105">
    <path clip-path="url(#pe5cc023973)" style="fill: none; stroke: #6d6d6d; stroke-width: 1.5; stroke-linecap: square"/>
    <g clip-path="url(#pe5cc023973)"/>
   </g>
   <g id="line2d_106">
    <path d="M 584.590909 361 
L 584.590909 80.057789 
" clip-path="url(#pe5cc023973)" style="fill: none; stroke: #6d6d6d; stroke-width: 1.875; stroke-linecap: square"/>
   </g>
   <g id="line2d_107">
    <path d="M 584.590909 224.806146 
L 584.590909 97.860026 
" clip-path="url(#pe5cc023973)" style="fill: none; stroke: #6d6d6d; stroke-width: 5.625; stroke-linecap: square"/>
   </g>
   <g id="line2d_108">
    <path d="M 584.590909 142.501673 
" clip-path="url(#pe5cc023973)" style="fill: none; stroke: #6d6d6d; stroke-width: 1.5; stroke-linecap: square"/>
    <g clip-path="url(#pe5cc023973)">
     <use xlink:href="#m05a413c060" x="584.590909" y="142.501673" style="fill: #ffffff; stroke: #ffffff; stroke-width: 1.125"/>
    </g>
   </g>
   <g id="patch_8">
    <path d="M 394.363636 320.4 
L 394.363636 43.2 
" style="fill: none; stroke: #000000; stroke-width: 0.8; stroke-linejoin: miter; stroke-linecap: square"/>
   </g>
   <g id="patch_9">
    <path d="M 648 320.4 
L 648 43.2 
" style="fill: none; stroke: #000000; stroke-width: 0.8; stroke-linejoin: miter; stroke-linecap: square"/>
   </g>
   <g id="patch_10">
    <path d="M 394.363636 320.4 
L 648 320.4 
" style="fill: none; stroke: #000000; stroke-width: 0.8; stroke-linejoin: miter; stroke-linecap: square"/>
   </g>
   <g id="patch_11">
    <path d="M 394.363636 43.2 
L 648 43.2 
" style="fill: none; stroke: #000000; stroke-width: 0.8; stroke-linejoin: miter; stroke-linecap: square"/>
   </g>
   <g id="PathCollection_3">
    <g clip-path="url(#pe5cc023973)">
     <use xlink:href="#mc92242ccba" x="453.104564" y="277.259295" style="fill-opacity: 0.4"/>
     <use xlink:href="#mc92242ccba" x="445.257554" y="293.948398" style="fill-opacity: 0.4"/>
     <use xlink:href="#mc92242ccba" x="464.889396" y="303.710897" style="fill-opacity: 0.4"/>
     <use xlink:href="#mc92242ccba" x="461.269697" y="303.710897" style="fill-opacity: 0.4"/>
     <use xlink:href="#mc92242ccba" x="449.159712" y="320.4" style="fill-opacity: 0.4"/>
     <use xlink:href="#mc92242ccba" x="464.802361" y="281.649103" style="fill-opacity: 0.4"/>
     <use xlink:href="#mc92242ccba" x="468.947307" y="293.948398" style="fill-opacity: 0.4"/>
     <use xlink:href="#mc92242ccba" x="450.856387" y="281.649103" style="fill-opacity: 0.4"/>
     <use xlink:href="#mc92242ccba" x="464.631005" y="320.4" style="fill-opacity: 0.4"/>
     <use xlink:href="#mc92242ccba" x="470.264718" y="243.881089" style="fill-opacity: 0.4"/>
     <use xlink:href="#mc92242ccba" x="468.117643" y="262.66519" style="fill-opacity: 0.4"/>
     <use xlink:href="#mc92242ccba" x="465.034401" y="190.536087" style="fill-opacity: 0.4"/>
     <use xlink:href="#mc92242ccba" x="462.76826" y="192.830897" style="fill-opacity: 0.4"/>
     <use xlink:href="#mc92242ccba" x="445.506093" y="281.649103" style="fill-opacity: 0.4"/>
     <use xlink:href="#mc92242ccba" x="462.179552" y="262.66519" style="fill-opacity: 0.4"/>
     <use xlink:href="#mc92242ccba" x="465.225579" y="233.458896" style="fill-opacity: 0.4"/>
     <use xlink:href="#mc92242ccba" x="447.22579" y="277.259295" style="fill-opacity: 0.4"/>
     <use xlink:href="#mc92242ccba" x="449.128516" y="287.021794" style="fill-opacity: 0.4"/>
     <use xlink:href="#mc92242ccba" x="461.797197" y="198.968011" style="fill-opacity: 0.4"/>
     <use xlink:href="#mc92242ccba" x="469.189941" y="207.22519" style="fill-opacity: 0.4"/>
     <use xlink:href="#mc92242ccba" x="452.014573" y="243.881089" style="fill-opacity: 0.4"/>
     <use xlink:href="#mc92242ccba" x="457.463371" y="287.021794" style="fill-opacity: 0.4"/>
     <use xlink:href="#mc92242ccba" x="454.716897" y="252.183912" style="fill-opacity: 0.4"/>
     <use xlink:href="#mc92242ccba" x="445.61821" y="178.880074" style="fill-opacity: 0.4"/>
     <use xlink:href="#mc92242ccba" x="462.483101" y="159.847161" style="fill-opacity: 0.4"/>
     <use xlink:href="#mc92242ccba" x="469.628541" y="236.954485" style="fill-opacity: 0.4"/>
     <use xlink:href="#mc92242ccba" x="455.460345" y="194.320689" style="fill-opacity: 0.4"/>
     <use xlink:href="#mc92242ccba" x="451.657317" y="124.473593" style="fill-opacity: 0.4"/>
     <use xlink:href="#mc92242ccba" x="446.401259" y="127.333261" style="fill-opacity: 0.4"/>
     <use xlink:href="#mc92242ccba" x="460.053815" y="207.666987" style="fill-opacity: 0.4"/>
     <use xlink:href="#mc92242ccba" x="465.128981" y="320.4" style="fill-opacity: 0.4"/>
     <use xlink:href="#mc92242ccba" x="459.620694" y="157.130536" style="fill-opacity: 0.4"/>
    </g>
   </g>
   <g id="PathCollection_4">
    <g clip-path="url(#pe5cc023973)">
     <use xlink:href="#mc92242ccba" x="582.150397" y="94.030489" style="fill-opacity: 0.4"/>
     <use xlink:href="#mc92242ccba" x="580.331603" y="90.640345" style="fill-opacity: 0.4"/>
     <use xlink:href="#mc92242ccba" x="588.59253" y="174.288781" style="fill-opacity: 0.4"/>
     <use xlink:href="#mc92242ccba" x="576.804706" y="80.057789" style="fill-opacity: 0.4"/>
     <use xlink:href="#mc92242ccba" x="575.648249" y="234.796868" style="fill-opacity: 0.4"/>
     <use xlink:href="#mc92242ccba" x="590.364317" y="115.391785" style="fill-opacity: 0.4"/>
     <use xlink:href="#mc92242ccba" x="574.325618" y="129.263775" style="fill-opacity: 0.4"/>
     <use xlink:href="#mc92242ccba" x="575.429332" y="207.890963" style="fill-opacity: 0.4"/>
    </g>
   </g>
   <g id="text_20">
    <!-- b -->
    <g transform="translate(356.115937 43.017187) scale(0.18 -0.18)">
     <defs>
      <path id="DejaVuSans-Bold-62" d="M 2400 722 
Q 2759 722 2948 984 
Q 3138 1247 3138 1747 
Q 3138 2247 2948 2509 
Q 2759 2772 2400 2772 
Q 2041 2772 1848 2508 
Q 1656 2244 1656 1747 
Q 1656 1250 1848 986 
Q 2041 722 2400 722 
z
M 1656 2988 
Q 1888 3294 2169 3439 
Q 2450 3584 2816 3584 
Q 3463 3584 3878 3070 
Q 4294 2556 4294 1747 
Q 4294 938 3878 423 
Q 3463 -91 2816 -91 
Q 2450 -91 2169 54 
Q 1888 200 1656 506 
L 1656 0 
L 538 0 
L 538 4863 
L 1656 4863 
L 1656 2988 
z
" transform="scale(0.015625)"/>
     </defs>
     <use xlink:href="#DejaVuSans-Bold-62"/>
    </g>
   </g>
   <g id="text_21">
    <!-- Dolosigranulum -->
    <g transform="translate(467.846506 37.2) scale(0.12 -0.12)">
     <defs>
      <path id="DejaVuSans-Bold-44" d="M 1791 3756 
L 1791 909 
L 2222 909 
Q 2959 909 3348 1275 
Q 3738 1641 3738 2338 
Q 3738 3031 3350 3393 
Q 2963 3756 2222 3756 
L 1791 3756 
z
M 588 4666 
L 1856 4666 
Q 2919 4666 3439 4514 
Q 3959 4363 4331 4000 
Q 4659 3684 4818 3271 
Q 4978 2859 4978 2338 
Q 4978 1809 4818 1395 
Q 4659 981 4331 666 
Q 3956 303 3431 151 
Q 2906 0 1856 0 
L 588 0 
L 588 4666 
z
" transform="scale(0.015625)"/>
      <path id="DejaVuSans-Bold-67" d="M 2919 594 
Q 2688 288 2409 144 
Q 2131 0 1766 0 
Q 1125 0 706 504 
Q 288 1009 288 1791 
Q 288 2575 706 3076 
Q 1125 3578 1766 3578 
Q 2131 3578 2409 3434 
Q 2688 3291 2919 2981 
L 2919 3500 
L 4044 3500 
L 4044 353 
Q 4044 -491 3511 -936 
Q 2978 -1381 1966 -1381 
Q 1638 -1381 1331 -1331 
Q 1025 -1281 716 -1178 
L 716 -306 
Q 1009 -475 1290 -558 
Q 1572 -641 1856 -641 
Q 2406 -641 2662 -400 
Q 2919 -159 2919 353 
L 2919 594 
z
M 2181 2772 
Q 1834 2772 1640 2515 
Q 1447 2259 1447 1791 
Q 1447 1309 1634 1061 
Q 1822 813 2181 813 
Q 2531 813 2725 1069 
Q 2919 1325 2919 1791 
Q 2919 2259 2725 2515 
Q 2531 2772 2181 2772 
z
" transform="scale(0.015625)"/>
      <path id="DejaVuSans-Bold-72" d="M 3138 2547 
Q 2991 2616 2845 2648 
Q 2700 2681 2553 2681 
Q 2122 2681 1889 2404 
Q 1656 2128 1656 1613 
L 1656 0 
L 538 0 
L 538 3500 
L 1656 3500 
L 1656 2925 
Q 1872 3269 2151 3426 
Q 2431 3584 2822 3584 
Q 2878 3584 2943 3579 
Q 3009 3575 3134 3559 
L 3138 2547 
z
" transform="scale(0.015625)"/>
      <path id="DejaVuSans-Bold-6e" d="M 4056 2131 
L 4056 0 
L 2931 0 
L 2931 347 
L 2931 1631 
Q 2931 2084 2911 2256 
Q 2891 2428 2841 2509 
Q 2775 2619 2662 2680 
Q 2550 2741 2406 2741 
Q 2056 2741 1856 2470 
Q 1656 2200 1656 1722 
L 1656 0 
L 538 0 
L 538 3500 
L 1656 3500 
L 1656 2988 
Q 1909 3294 2193 3439 
Q 2478 3584 2822 3584 
Q 3428 3584 3742 3212 
Q 4056 2841 4056 2131 
z
" transform="scale(0.015625)"/>
     </defs>
     <use xlink:href="#DejaVuSans-Bold-44"/>
     <use xlink:href="#DejaVuSans-Bold-6f" transform="translate(83.007812 0)"/>
     <use xlink:href="#DejaVuSans-Bold-6c" transform="translate(151.708984 0)"/>
     <use xlink:href="#DejaVuSans-Bold-6f" transform="translate(185.986328 0)"/>
     <use xlink:href="#DejaVuSans-Bold-73" transform="translate(254.6875 0)"/>
     <use xlink:href="#DejaVuSans-Bold-69" transform="translate(314.208984 0)"/>
     <use xlink:href="#DejaVuSans-Bold-67" transform="translate(348.486328 0)"/>
     <use xlink:href="#DejaVuSans-Bold-72" transform="translate(420.068359 0)"/>
     <use xlink:href="#DejaVuSans-Bold-61" transform="translate(469.384766 0)"/>
     <use xlink:href="#DejaVuSans-Bold-6e" transform="translate(536.865234 0)"/>
     <use xlink:href="#DejaVuSans-Bold-75" transform="translate(608.056641 0)"/>
     <use xlink:href="#DejaVuSans-Bold-6c" transform="translate(679.248047 0)"/>
     <use xlink:href="#DejaVuSans-Bold-75" transform="translate(713.525391 0)"/>
     <use xlink:href="#DejaVuSans-Bold-6d" transform="translate(784.716797 0)"/>
    </g>
   </g>
  </g>
 </g>
 <defs>
  <clipPath id="pbecb1b824f">
   <rect x="90" y="43.2" width="253.636364" height="277.2"/>
  </clipPath>
  <clipPath id="pe5cc023973">
   <rect x="394.363636" y="43.2" width="253.636364" height="277.2"/>
  </clipPath>
 </defs>
</svg>
